<svg width="188" height="48" viewBox="0 0 188 48" fill="none" xmlns="http://www.w3.org/2000/svg">
<path d="M9.01098 46.0443H7.6772V43.2656H1.65929V46.0443H0.325507V42.0589H0.97652C1.63283 41.2914 2.13829 40.3546 2.49291 39.2484C2.84752 38.1369 3.02483 37.0095 3.02483 35.8663V34.7628H8.05034V42.0589H9.01098V46.0443ZM6.59747 42.0589V35.9616H4.27922C4.27922 37.0783 4.11779 38.1872 3.79493 39.2881C3.47737 40.389 3.02483 41.3126 2.43733 42.0589H6.59747ZM17.625 43.2656H16.1166V37.4462L10.8132 43.4959H10.4718V34.7628H11.9882V40.5822L17.2836 34.5325H17.625V43.2656ZM23.9605 38.8276C25.019 39.214 25.5483 39.9073 25.5483 40.9077C25.5483 41.6963 25.2493 42.3129 24.6512 42.7575C24.0584 43.2021 23.2512 43.4244 22.2297 43.4244C21.1024 43.4244 20.0623 43.1068 19.1096 42.4717L19.8718 41.2649C20.544 41.8842 21.3538 42.1938 22.3012 42.1938C22.8146 42.1938 23.2221 42.0774 23.5238 41.8445C23.8255 41.6063 23.9764 41.2941 23.9764 40.9077C23.9764 39.8915 23.3412 39.3834 22.0709 39.3834C21.711 39.3834 21.3961 39.3992 21.1262 39.431V38.2242C21.2215 38.2348 21.5523 38.2401 22.1186 38.2401C22.6373 38.2401 23.0395 38.1396 23.3253 37.9384C23.6164 37.732 23.762 37.4488 23.762 37.0889C23.762 36.692 23.6297 36.385 23.365 36.168C23.1057 35.9457 22.7405 35.8345 22.2694 35.8345C21.5549 35.8345 20.8113 36.0515 20.0385 36.4856L19.4828 35.2629C20.4566 34.8183 21.412 34.596 22.3488 34.596C23.1851 34.596 23.8864 34.8183 24.4527 35.2629C25.019 35.7022 25.3022 36.2897 25.3022 37.0254C25.3022 37.8987 24.855 38.4995 23.9605 38.8276ZM31.8758 42.2891C31.2619 43.046 30.3409 43.4244 29.113 43.4244C28.4408 43.4244 27.8613 43.1809 27.3743 42.694C26.8874 42.2071 26.6439 41.6063 26.6439 40.8918C26.6439 40.0291 27.0171 39.3013 27.7633 38.7085C28.5149 38.1157 29.4782 37.8193 30.6532 37.8193C30.9761 37.8193 31.3413 37.8829 31.7488 38.0099C31.7488 36.6338 31.1296 35.9457 29.891 35.9457C28.9648 35.9457 28.2397 36.2024 27.7157 36.7158L27.0806 35.4614C27.3346 35.2444 27.7184 35.0459 28.2318 34.866C28.7505 34.686 29.2506 34.596 29.7323 34.596C30.9284 34.596 31.8123 34.8686 32.384 35.4138C32.9556 35.9589 33.2414 36.864 33.2414 38.129V41.1697C33.2414 41.916 33.4637 42.4135 33.9083 42.6622V43.4085C33.252 43.4085 32.7756 43.3106 32.4792 43.1148C32.1881 42.9189 31.987 42.6437 31.8758 42.2891ZM31.7488 39.0896C31.209 38.9785 30.8729 38.9229 30.7405 38.9229C29.9784 38.9229 29.3565 39.1214 28.8748 39.5183C28.3932 39.9153 28.1524 40.3784 28.1524 40.9077C28.1524 41.7969 28.6737 42.2415 29.7164 42.2415C30.4627 42.2415 31.1401 41.8789 31.7488 41.1538V39.0896ZM42.6652 43.2656H41.1568V37.4462L35.8534 43.4959H35.512V34.7628H37.0284V40.5822L42.3238 34.5325H42.6652V43.2656ZM42.0856 30.6503C41.731 32.2751 40.781 33.0876 39.2355 33.0876C37.6953 33.0876 36.7479 32.2751 36.3932 30.6503L37.7429 30.3406C37.9387 31.4256 38.4363 31.9682 39.2355 31.9682C40.13 31.9682 40.6513 31.4309 40.7995 30.3565L42.0856 30.6503ZM51.7635 43.2656H50.2471V39.431H46.3331V43.2656H44.8167V34.7628H46.3331V38.1766H50.2471V34.7628H51.7635V43.2656ZM65.9747 43.2656H64.4662V37.4462L59.1628 43.4959H58.8215V34.7628H60.3378V40.5822L65.6333 34.5325H65.9747V43.2656ZM79.4554 35.4614L78.725 36.5173C78.5398 36.3532 78.2592 36.205 77.8835 36.0727C77.513 35.9351 77.1372 35.8663 76.7561 35.8663C75.9304 35.8663 75.2768 36.1574 74.7951 36.7396C74.3135 37.3218 74.0726 38.1104 74.0726 39.1055C74.0726 40.0688 74.3135 40.8204 74.7951 41.3602C75.2768 41.8948 75.9675 42.1621 76.8672 42.1621C77.5447 42.1621 78.2301 41.8948 78.9235 41.3602L79.503 42.6305C78.7144 43.1598 77.7114 43.4244 76.4941 43.4244C75.3403 43.4244 74.3849 43.0354 73.628 42.2573C72.8765 41.474 72.5007 40.4234 72.5007 39.1055C72.5007 37.7135 72.8976 36.6152 73.6916 35.8107C74.4908 35.0009 75.5626 34.596 76.9069 34.596C77.3674 34.596 77.8517 34.6913 78.3598 34.8818C78.8679 35.0724 79.2331 35.2656 79.4554 35.4614ZM84.4174 34.596C85.6347 34.596 86.5769 34.9903 87.2438 35.779C87.9159 36.5623 88.252 37.6314 88.252 38.9864C88.252 40.3784 87.9027 41.4661 87.2041 42.2494C86.5054 43.0327 85.5765 43.4244 84.4174 43.4244C83.2054 43.4244 82.2606 43.0274 81.5831 42.2335C80.9056 41.4396 80.5669 40.3572 80.5669 38.9864C80.5669 37.6791 80.9215 36.6205 81.6307 35.8107C82.34 35.0009 83.2689 34.596 84.4174 34.596ZM84.4174 42.1938C85.1266 42.1938 85.6771 41.9001 86.0688 41.3126C86.4657 40.7251 86.6642 39.9497 86.6642 38.9864C86.6642 36.8852 85.9153 35.8345 84.4174 35.8345C83.7082 35.8345 83.1498 36.1204 82.7422 36.692C82.34 37.2636 82.1389 38.0284 82.1389 38.9864C82.1389 41.1247 82.8984 42.1938 84.4174 42.1938ZM94.0318 38.8276C95.0903 39.214 95.6196 39.9073 95.6196 40.9077C95.6196 41.6963 95.3206 42.3129 94.7225 42.7575C94.1297 43.2021 93.3225 43.4244 92.301 43.4244C91.1737 43.4244 90.1336 43.1068 89.1809 42.4717L89.9431 41.2649C90.6153 41.8842 91.4251 42.1938 92.3725 42.1938C92.8859 42.1938 93.2934 42.0774 93.5951 41.8445C93.8968 41.6063 94.0476 41.2941 94.0476 40.9077C94.0476 39.8915 93.4125 39.3834 92.1422 39.3834C91.7823 39.3834 91.4674 39.3992 91.1975 39.431V38.2242C91.2927 38.2348 91.6235 38.2401 92.1899 38.2401C92.7086 38.2401 93.1108 38.1396 93.3966 37.9384C93.6877 37.732 93.8333 37.4488 93.8333 37.0889C93.8333 36.692 93.701 36.385 93.4363 36.168C93.177 35.9457 92.8118 35.8345 92.3407 35.8345C91.6262 35.8345 90.8825 36.0515 90.1098 36.4856L89.5541 35.2629C90.5279 34.8183 91.4833 34.596 92.4201 34.596C93.2564 34.596 93.9577 34.8183 94.524 35.2629C95.0903 35.7022 95.3735 36.2897 95.3735 37.0254C95.3735 37.8987 94.9262 38.4995 94.0318 38.8276ZM105.17 46.0443H103.837V43.2656H97.8188V46.0443H96.485V42.0589H97.136C97.7923 41.2914 98.2978 40.3546 98.6524 39.2484C99.007 38.1369 99.1843 37.0095 99.1843 35.8663V34.7628H104.21V42.0589H105.17V46.0443ZM102.757 42.0589V35.9616H100.439C100.439 37.0783 100.277 38.1872 99.9544 39.2881C99.6368 40.389 99.1843 41.3126 98.5968 42.0589H102.757ZM111.347 42.2891C110.733 43.046 109.812 43.4244 108.584 43.4244C107.912 43.4244 107.333 43.1809 106.846 42.694C106.359 42.2071 106.115 41.6063 106.115 40.8918C106.115 40.0291 106.488 39.3013 107.235 38.7085C107.986 38.1157 108.949 37.8193 110.124 37.8193C110.447 37.8193 110.813 37.8829 111.22 38.0099C111.22 36.6338 110.601 35.9457 109.362 35.9457C108.436 35.9457 107.711 36.2024 107.187 36.7158L106.552 35.4614C106.806 35.2444 107.19 35.0459 107.703 34.866C108.222 34.686 108.722 34.596 109.204 34.596C110.4 34.596 111.284 34.8686 111.855 35.4138C112.427 35.9589 112.713 36.864 112.713 38.129V41.1697C112.713 41.916 112.935 42.4135 113.38 42.6622V43.4085C112.723 43.4085 112.247 43.3106 111.951 43.1148C111.659 42.9189 111.458 42.6437 111.347 42.2891ZM111.22 39.0896C110.68 38.9785 110.344 38.9229 110.212 38.9229C109.45 38.9229 108.828 39.1214 108.346 39.5183C107.864 39.9153 107.624 40.3784 107.624 40.9077C107.624 41.7969 108.145 42.2415 109.188 42.2415C109.934 42.2415 110.611 41.8789 111.22 41.1538V39.0896ZM121.93 43.2656H120.414V39.431H116.5V43.2656H114.983V34.7628H116.5V38.1766H120.414V34.7628H121.93V43.2656ZM131.235 43.2656H129.726V37.4462L124.423 43.4959H124.082V34.7628H125.598V40.5822L130.893 34.5325H131.235V43.2656ZM140.54 39.169H134.41C134.41 39.7936 134.516 40.3228 134.728 40.7568C134.94 41.1909 135.244 41.5349 135.641 41.7889C136.043 42.0377 136.528 42.1621 137.094 42.1621C137.946 42.1621 138.666 41.9054 139.253 41.392L139.873 42.6146C139.476 42.9269 139.039 43.1412 138.563 43.2577C138.086 43.3688 137.499 43.4244 136.8 43.4244C135.646 43.4244 134.696 43.0301 133.95 42.2415C133.209 41.4476 132.839 40.4075 132.839 39.1214C132.839 37.7717 133.228 36.6814 134.006 35.8504C134.789 35.0142 135.726 34.596 136.816 34.596C137.991 34.596 138.928 34.9268 139.627 35.5884C140.325 36.2447 140.674 37.1286 140.674 38.2401C140.674 38.4624 140.63 38.772 140.54 39.169ZM136.88 35.8663C136.218 35.8663 135.66 36.0833 135.204 36.5173C134.755 36.946 134.506 37.4621 134.458 38.0655H139.158C139.158 37.4197 138.952 36.8931 138.539 36.4856C138.126 36.0727 137.573 35.8663 136.88 35.8663ZM153.607 35.4614L152.877 36.5173C152.692 36.3532 152.411 36.205 152.035 36.0727C151.665 35.9351 151.289 35.8663 150.908 35.8663C150.082 35.8663 149.429 36.1574 148.947 36.7396C148.466 37.3218 148.225 38.1104 148.225 39.1055C148.225 40.0688 148.466 40.8204 148.947 41.3602C149.429 41.8948 150.119 42.1621 151.019 42.1621C151.697 42.1621 152.382 41.8948 153.076 41.3602L153.655 42.6305C152.866 43.1598 151.863 43.4244 150.646 43.4244C149.492 43.4244 148.537 43.0354 147.78 42.2573C147.029 41.474 146.653 40.4234 146.653 39.1055C146.653 37.7135 147.05 36.6152 147.844 35.8107C148.643 35.0009 149.715 34.596 151.059 34.596C151.519 34.596 152.004 34.6913 152.512 34.8818C153.02 35.0724 153.385 35.2656 153.607 35.4614ZM159.983 42.2891C159.369 43.046 158.448 43.4244 157.22 43.4244C156.548 43.4244 155.968 43.1809 155.481 42.694C154.994 42.2071 154.751 41.6063 154.751 40.8918C154.751 40.0291 155.124 39.3013 155.87 38.7085C156.622 38.1157 157.585 37.8193 158.76 37.8193C159.083 37.8193 159.448 37.8829 159.856 38.0099C159.856 36.6338 159.236 35.9457 157.998 35.9457C157.072 35.9457 156.346 36.2024 155.822 36.7158L155.187 35.4614C155.441 35.2444 155.825 35.0459 156.339 34.866C156.857 34.686 157.357 34.596 157.839 34.596C159.035 34.596 159.919 34.8686 160.491 35.4138C161.062 35.9589 161.348 36.864 161.348 38.129V41.1697C161.348 41.916 161.57 42.4135 162.015 42.6622V43.4085C161.359 43.4085 160.882 43.3106 160.586 43.1148C160.295 42.9189 160.094 42.6437 159.983 42.2891ZM159.856 39.0896C159.316 38.9785 158.98 38.9229 158.847 38.9229C158.085 38.9229 157.463 39.1214 156.982 39.5183C156.5 39.9153 156.259 40.3784 156.259 40.9077C156.259 41.7969 156.78 42.2415 157.823 42.2415C158.569 42.2415 159.247 41.8789 159.856 41.1538V39.0896ZM170.772 43.2656H169.264V37.4462L163.96 43.4959H163.619V34.7628H165.135V40.5822L170.431 34.5325H170.772V43.2656ZM170.192 30.6503C169.838 32.2751 168.888 33.0876 167.342 33.0876C165.802 33.0876 164.855 32.2751 164.5 30.6503L165.85 30.3406C166.046 31.4256 166.543 31.9682 167.342 31.9682C168.237 31.9682 168.758 31.4309 168.906 30.3565L170.192 30.6503ZM178.727 36.033H176.29V43.2656H174.781V36.033H172.336V34.7628H178.727V36.033ZM185.007 42.2891C184.393 43.046 183.472 43.4244 182.244 43.4244C181.572 43.4244 180.992 43.1809 180.505 42.694C180.018 42.2071 179.775 41.6063 179.775 40.8918C179.775 40.0291 180.148 39.3013 180.894 38.7085C181.646 38.1157 182.609 37.8193 183.784 37.8193C184.107 37.8193 184.472 37.8829 184.88 38.0099C184.88 36.6338 184.261 35.9457 183.022 35.9457C182.096 35.9457 181.371 36.2024 180.847 36.7158L180.212 35.4614C180.466 35.2444 180.849 35.0459 181.363 34.866C181.882 34.686 182.382 34.596 182.863 34.596C184.06 34.596 184.943 34.8686 185.515 35.4138C186.087 35.9589 186.372 36.864 186.372 38.129V41.1697C186.372 41.916 186.595 42.4135 187.039 42.6622V43.4085C186.383 43.4085 185.907 43.3106 185.61 43.1148C185.319 42.9189 185.118 42.6437 185.007 42.2891ZM184.88 39.0896C184.34 38.9785 184.004 38.9229 183.872 38.9229C183.109 38.9229 182.488 39.1214 182.006 39.5183C181.524 39.9153 181.283 40.3784 181.283 40.9077C181.283 41.7969 181.805 42.2415 182.847 42.2415C183.594 42.2415 184.271 41.8789 184.88 41.1538V39.0896Z" fill="white"/>
<path d="M0.0289766 23.5644V6.37696H4.54931V23.5644H0.0289766ZM0 4.79791V0.455497H4.57829V4.79791H0ZM8.34432 23.5644V6.65026L11.8795 6.37696L12.2562 7.86492C13.1448 6.60977 15.0669 5.9822 18.0225 5.9822C19.6452 5.9822 20.7656 6.14415 21.3838 6.46806C22.0212 6.77173 22.4945 7.25759 22.8036 7.92565C23.7695 6.63002 25.7978 5.9822 28.8887 5.9822C30.0864 5.9822 31.0716 6.14415 31.8443 6.46806C32.6363 6.79197 33.2255 7.29808 33.6119 7.98639C34.0175 8.67469 34.288 9.41361 34.4232 10.2031C34.5584 10.9927 34.626 11.9745 34.626 13.1487V23.5644H30.0477V14.0901C30.0477 13.422 30.0284 12.926 29.9898 12.6021C29.9511 12.2782 29.8449 11.9239 29.671 11.5393C29.5165 11.1344 29.2364 10.8611 28.8307 10.7194C28.4444 10.5574 27.9228 10.4764 27.266 10.4764C25.8172 10.4764 24.8706 10.7902 24.4263 11.4178C23.982 12.0251 23.7598 12.9867 23.7598 14.3026V23.5644H19.2105V14.0901C19.2105 13.4422 19.1912 12.9564 19.1526 12.6325C19.1139 12.2883 19.0077 11.9239 18.8338 11.5393C18.6793 11.1546 18.3992 10.8813 17.9935 10.7194C17.5878 10.5574 17.0566 10.4764 16.3998 10.4764C14.951 10.4764 14.0044 10.7902 13.5601 11.4178C13.1158 12.0251 12.8936 12.9867 12.8936 14.3026V23.5644H8.34432ZM38.1132 28.5749V6.65026L41.6483 6.37696L42.025 7.89529C43.0489 6.6199 45.0483 5.9822 48.0232 5.9822C49.3755 5.9822 50.5249 6.21501 51.4715 6.68063C52.4181 7.126 53.1425 7.77382 53.6447 8.62408C54.147 9.47435 54.5044 10.4056 54.7169 11.4178C54.9293 12.43 55.0356 13.6042 55.0356 14.9403C55.0356 16.2562 54.9197 17.4202 54.6879 18.4325C54.4754 19.4447 54.1083 20.3759 53.5868 21.2262C53.0652 22.0764 52.3118 22.7243 51.3266 23.1696C50.3607 23.615 49.1727 23.8377 47.7624 23.8377C45.1738 23.8377 43.4739 23.3012 42.6625 22.2283V28.5749H38.1132ZM46.8641 19.799C48.2357 19.799 49.1727 19.4042 49.6749 18.6147C50.1772 17.8049 50.4283 16.6408 50.4283 15.1225C50.4283 13.5637 50.1772 12.3794 49.6749 11.5696C49.192 10.7396 48.255 10.3246 46.8641 10.3246C45.338 10.3246 44.2562 10.7093 43.6188 11.4785C42.9813 12.2276 42.6625 13.4422 42.6625 15.1225C42.6625 16.823 42.9619 18.0276 43.5607 18.7361C44.1596 19.4447 45.2608 19.799 46.8641 19.799ZM65.5734 23.8377C62.5405 23.8377 60.4735 23.2202 59.3724 21.9853C58.2906 20.7504 57.7497 18.6045 57.7497 15.5476V6.37696H62.299V15.6387C62.299 16.2461 62.3087 16.7016 62.328 17.0052C62.3473 17.3089 62.415 17.6733 62.5309 18.0984C62.6468 18.5033 62.811 18.807 63.0235 19.0094C63.2553 19.1916 63.5837 19.3536 64.0087 19.4953C64.4336 19.637 64.9649 19.7079 65.6024 19.7079C66.2205 19.7079 66.7421 19.637 67.1671 19.4953C67.5921 19.3536 67.9108 19.1815 68.1233 18.9791C68.3551 18.7766 68.529 18.473 68.6449 18.0681C68.7608 17.6632 68.8284 17.3089 68.8477 17.0052C68.8671 16.6813 68.8767 16.2157 68.8767 15.6084V6.37696H73.3391V15.5173C73.3391 17.0558 73.2232 18.3211 72.9914 19.3131C72.7789 20.3051 72.3829 21.1553 71.8033 21.8639C71.2238 22.5724 70.4318 23.0785 69.4273 23.3822C68.4227 23.6859 67.1381 23.8377 65.5734 23.8377ZM81.5177 23.6251C79.9723 23.6251 78.8326 23.2405 78.0985 22.4712C77.3837 21.7019 77.0264 20.3354 77.0264 18.3717V0H81.5467V17.7948C81.5467 18.5033 81.6433 18.9791 81.8365 19.222C82.049 19.4649 82.4933 19.5864 83.1694 19.5864H83.7199V23.5037C83.2177 23.5846 82.4836 23.6251 81.5177 23.6251ZM92.7621 23.8377C89.594 23.8377 86.9861 23.119 84.9384 21.6817L87.2565 18.1895C89.0337 19.3839 90.9655 19.9812 93.0518 19.9812C94.2109 19.9812 94.9933 19.8901 95.3989 19.7079C95.8046 19.5257 96.0074 19.141 96.0074 18.5539C96.0074 18.0681 95.8143 17.734 95.4279 17.5518C95.0416 17.3696 94.2688 17.1976 93.1098 17.0356C92.4143 16.9344 91.8541 16.8534 91.4291 16.7927C91.0042 16.7117 90.5019 16.6004 89.9224 16.4586C89.3622 16.2967 88.9082 16.1347 88.5605 15.9728C88.2321 15.8108 87.8747 15.5881 87.4883 15.3047C87.1213 15.0213 86.8412 14.7075 86.648 14.3634C86.4548 13.999 86.2906 13.5637 86.1554 13.0576C86.0202 12.5515 85.9526 11.9846 85.9526 11.3571C85.9526 9.55532 86.5128 8.20908 87.6332 7.31833C88.7536 6.42757 90.5792 5.9822 93.1098 5.9822C95.9495 5.9822 98.2579 6.50855 100.035 7.56126L97.8619 11.266C96.5097 10.5169 94.9739 10.1424 93.2547 10.1424C92.1536 10.1424 91.4098 10.2436 91.0235 10.4461C90.6564 10.6283 90.4729 10.9421 90.4729 11.3874C90.4729 11.8531 90.6468 12.177 90.9945 12.3592C91.3422 12.5414 92.0666 12.7134 93.1677 12.8754C94.037 12.9969 94.7035 13.1082 95.1671 13.2094C95.6501 13.2904 96.2199 13.422 96.8767 13.6042C97.5529 13.7661 98.0551 13.9686 98.3835 14.2115C98.7312 14.4342 99.0886 14.7277 99.4556 15.0921C99.8227 15.4565 100.074 15.912 100.209 16.4586C100.364 16.985 100.441 17.5923 100.441 18.2806C100.441 20.2646 99.8613 21.6918 98.7023 22.5623C97.5432 23.4126 95.5631 23.8377 92.7621 23.8377ZM110.793 23.8984C109.074 23.8984 107.635 23.6757 106.476 23.2304C105.317 22.7647 104.438 22.0967 103.839 21.2262C103.24 20.3557 102.825 19.4244 102.593 18.4325C102.361 17.4405 102.245 16.2764 102.245 14.9403C102.245 13.9079 102.313 12.9766 102.448 12.1466C102.583 11.3166 102.844 10.5068 103.23 9.71728C103.617 8.92775 104.119 8.26981 104.737 7.74346C105.355 7.2171 106.176 6.79197 107.2 6.46806C108.224 6.14415 109.412 5.9822 110.764 5.9822C111.943 5.9822 112.957 6.11379 113.807 6.37696C114.676 6.64014 115.371 7.01466 115.893 7.50052C116.415 7.98639 116.84 8.56335 117.168 9.23141C117.516 9.89948 117.738 10.6283 117.834 11.4178C117.95 12.2073 118.028 13.0576 118.066 13.9686C118.124 14.8796 118.124 15.8108 118.066 16.7623H106.65C106.785 17.8555 107.161 18.6754 107.78 19.222C108.398 19.7686 109.402 20.0419 110.793 20.0419C112.879 20.0419 114.599 19.5155 115.951 18.4628L118.24 21.5602C117.178 22.3902 116.077 22.9874 114.937 23.3518C113.797 23.7162 112.416 23.8984 110.793 23.8984ZM110.619 9.96021C109.286 9.96021 108.321 10.2436 107.722 10.8105C107.123 11.3773 106.765 12.2276 106.65 13.3613H113.923C113.845 12.2073 113.594 11.3571 113.169 10.8105C112.764 10.2436 111.914 9.96021 110.619 9.96021ZM121.171 23.5644V20.1937H124.068V23.5644H121.171ZM134.45 17.4304C133.406 17.4304 132.479 17.3393 131.668 17.1571C131.339 17.562 131.175 17.977 131.175 18.4021C131.175 18.9284 131.397 19.2726 131.842 19.4346C132.305 19.5965 133.204 19.6775 134.537 19.6775C137.473 19.6775 139.492 19.971 140.593 20.5581C141.694 21.1452 142.244 22.2789 142.244 23.9592C142.244 25.7204 141.645 26.9958 140.448 27.7853C139.25 28.5951 137.222 29 134.363 29C131.678 29 129.775 28.7065 128.654 28.1194C127.534 27.5323 126.974 26.429 126.974 24.8094C126.974 22.4813 128.026 21.0946 130.132 20.6492C129.456 20.3456 129.118 19.6876 129.118 18.6754C129.118 17.8454 129.369 17.0963 129.871 16.4283C128.558 15.5578 127.901 14.0901 127.901 12.0251C127.901 10.1222 128.422 8.71518 129.466 7.80419C130.528 6.87295 132.189 6.40733 134.45 6.40733C134.991 6.40733 135.512 6.4377 136.014 6.49843L141.578 5.8V7.71309H138.912C140.342 8.52286 141.056 9.96021 141.056 12.0251C141.056 13.8876 140.525 15.2541 139.463 16.1246C138.4 16.9951 136.729 17.4304 134.45 17.4304ZM134.45 15.4262C136.034 15.4262 137.164 15.163 137.84 14.6367C138.535 14.0901 138.883 13.2195 138.883 12.0251C138.883 9.71728 137.405 8.56335 134.45 8.56335C132.885 8.56335 131.755 8.83665 131.059 9.38325C130.383 9.92984 130.045 10.8105 130.045 12.0251C130.045 13.2195 130.383 14.0901 131.059 14.6367C131.755 15.163 132.885 15.4262 134.45 15.4262ZM134.421 27.0869C136.584 27.0869 138.052 26.844 138.825 26.3581C139.617 25.8925 140.013 25.1435 140.013 24.111C140.013 23.119 139.617 22.4712 138.825 22.1675C138.052 21.8436 136.584 21.6817 134.421 21.6817C133.32 21.6817 132.402 21.7525 131.668 21.8942C130.934 22.036 130.393 22.2485 130.045 22.5319C129.717 22.7951 129.485 23.0785 129.35 23.3822C129.234 23.6859 129.176 24.0503 129.176 24.4754C129.176 25.4674 129.582 26.1456 130.393 26.5099C131.204 26.8946 132.547 27.0869 134.421 27.0869ZM152.065 23.8681C150.558 23.8681 149.331 23.7162 148.385 23.4126C147.458 23.1089 146.762 22.6129 146.299 21.9246C145.854 21.2161 145.565 20.4873 145.429 19.7382C145.294 18.9689 145.226 17.9466 145.226 16.6712V6.80209H147.4V16.7319C147.4 17.2583 147.4 17.6531 147.4 17.9162C147.419 18.1592 147.458 18.4932 147.516 18.9183C147.574 19.3435 147.66 19.6674 147.776 19.8901C147.892 20.1127 148.057 20.3658 148.269 20.6492C148.501 20.9326 148.781 21.1452 149.109 21.2869C149.438 21.4084 149.843 21.5197 150.326 21.6209C150.829 21.7222 151.408 21.7728 152.065 21.7728C152.722 21.7728 153.292 21.7222 153.775 21.6209C154.277 21.5197 154.682 21.4084 154.992 21.2869C155.32 21.1452 155.59 20.9326 155.803 20.6492C156.035 20.3456 156.199 20.0925 156.295 19.8901C156.411 19.6674 156.489 19.3333 156.527 18.888C156.585 18.4223 156.614 18.0681 156.614 17.8251C156.634 17.5822 156.643 17.1773 156.643 16.6105V6.80209H158.787V16.5801C158.787 17.6126 158.749 18.4628 158.672 19.1309C158.614 19.7787 158.449 20.4366 158.179 21.1047C157.928 21.7728 157.561 22.289 157.078 22.6534C156.614 22.9976 155.967 23.2911 155.136 23.534C154.306 23.7567 153.282 23.8681 152.065 23.8681ZM163.112 23.5644V6.92356L164.851 6.80209L165.083 9.04921C165.411 8.36091 166.058 7.78394 167.024 7.31833C168.009 6.85271 169.207 6.60977 170.617 6.58953V8.89738C167.082 8.89738 165.314 10.77 165.314 14.5152V23.5644H163.112ZM180.277 23.8681C178.771 23.8681 177.544 23.7162 176.597 23.4126C175.67 23.1089 174.975 22.6129 174.511 21.9246C174.067 21.2161 173.777 20.4873 173.642 19.7382C173.507 18.9689 173.439 17.9466 173.439 16.6712V6.80209H175.612V16.7319C175.612 17.2583 175.612 17.6531 175.612 17.9162C175.632 18.1592 175.67 18.4932 175.728 18.9183C175.786 19.3435 175.873 19.6674 175.989 19.8901C176.105 20.1127 176.269 20.3658 176.482 20.6492C176.713 20.9326 176.993 21.1452 177.322 21.2869C177.65 21.4084 178.056 21.5197 178.539 21.6209C179.041 21.7222 179.621 21.7728 180.277 21.7728C180.934 21.7728 181.504 21.7222 181.987 21.6209C182.489 21.5197 182.895 21.4084 183.204 21.2869C183.532 21.1452 183.803 20.9326 184.015 20.6492C184.247 20.3456 184.411 20.0925 184.508 19.8901C184.624 19.6674 184.701 19.3333 184.74 18.888C184.798 18.4223 184.827 18.0681 184.827 17.8251C184.846 17.5822 184.856 17.1773 184.856 16.6105V6.80209H187V16.5801C187 17.6126 186.961 18.4628 186.884 19.1309C186.826 19.7787 186.662 20.4366 186.391 21.1047C186.14 21.7728 185.773 22.289 185.29 22.6534C184.827 22.9976 184.18 23.2911 183.349 23.534C182.518 23.7567 181.494 23.8681 180.277 23.8681Z" fill="white"/>
</svg>
