<svg width="22" height="16" viewBox="0 0 22 16" fill="none" xmlns="http://www.w3.org/2000/svg">
<path d="M21.8687 13.7782V3.53537C21.8687 3.53537 11.9184 10.7623 10.9507 11.1373C9.99946 10.7793 0 3.53537 0 3.53537V13.7782C0 15.2008 0.28976 15.4853 1.64015 15.4853H20.2285C21.6112 15.4853 21.8687 15.2355 21.8687 13.7782ZM21.8528 1.52721C21.8528 0.490974 21.5625 0.121094 20.2285 0.121094H1.64015C0.267891 0.121094 0 0.56495 0 1.60061L0.0164015 1.75995C0.0164015 1.75995 9.89504 8.83888 10.9507 9.22584C12.066 8.77629 21.8687 1.60061 21.8687 1.60061L21.8528 1.52721Z" fill="white"/>
</svg>
