<svg width="18" height="23" viewBox="0 0 18 23" fill="none" xmlns="http://www.w3.org/2000/svg">
<path d="M7.30164 9.56873L9.05132 7.94318C9.53014 7.49816 9.86682 6.91838 10.0182 6.2782C10.1696 5.63802 10.1287 4.96663 9.90089 4.35012L9.15324 2.3281C8.87421 1.57365 8.3217 0.95539 7.60832 0.599327C6.89494 0.243264 6.07438 0.1762 5.31388 0.411804C2.51569 1.27909 0.364866 3.914 1.02691 7.04368C1.46229 9.10204 2.29474 11.6857 3.87402 14.4355C5.19734 16.7513 6.86214 18.8487 8.8108 20.6552C11.1508 22.8126 14.4936 22.2733 16.6444 20.2422C17.221 19.6976 17.5708 18.9507 17.6226 18.1539C17.6744 17.357 17.4243 16.5701 16.9233 15.9536L15.5527 14.267C15.1396 13.7583 14.5859 13.3864 13.9627 13.1989C13.3394 13.0114 12.6751 13.0169 12.055 13.2146L9.79163 13.9374C9.70439 13.8465 9.60411 13.7383 9.49323 13.6136C9.0279 13.0921 8.61621 12.5239 8.26453 11.9178C7.9224 11.3062 7.64266 10.6608 7.42964 9.99163C7.38411 9.85157 7.34143 9.71057 7.30164 9.56873Z" fill="white"/>
</svg>
