<svg width="26" height="25" viewBox="0 0 26 25" fill="none" xmlns="http://www.w3.org/2000/svg">
<path fill-rule="evenodd" clip-rule="evenodd" d="M7.83874 0.0729802C9.14191 0.0132691 9.55742 0 12.877 0C16.1966 0 16.6121 0.0143749 17.9142 0.0729802C19.2163 0.131586 20.1051 0.338363 20.8827 0.638024C21.6971 0.94432 22.4359 1.42311 23.0469 2.04234C23.6691 2.6494 24.149 3.38363 24.4557 4.19526C24.7578 4.96929 24.9645 5.8539 25.0245 7.14764C25.0845 8.44691 25.0978 8.86046 25.0978 12.1634C25.0978 15.4674 25.0834 15.8809 25.0245 17.178C24.9656 18.4717 24.7578 19.3563 24.4557 20.1304C24.149 20.9421 23.6683 21.6776 23.0469 22.2855C22.4359 22.9047 21.6971 23.3824 20.8827 23.6876C20.1051 23.9884 19.2163 24.194 17.9164 24.2538C16.6121 24.3135 16.1966 24.3267 12.877 24.3267C9.55742 24.3267 9.14191 24.3124 7.83874 24.2538C6.53889 24.1952 5.6501 23.9884 4.87242 23.6876C4.05687 23.3824 3.31796 22.9039 2.70712 22.2855C2.08539 21.6781 1.60427 20.943 1.29729 20.1315C0.99621 19.3574 0.789568 18.4728 0.729575 17.1791C0.669582 15.8798 0.65625 15.4663 0.65625 12.1634C0.65625 8.85936 0.670693 8.4458 0.729575 7.14985C0.788457 5.8539 0.99621 4.96929 1.29729 4.19526C1.60472 3.38372 2.08621 2.64864 2.70823 2.04123C3.3182 1.42256 4.05637 0.943704 4.87131 0.638024C5.64899 0.338363 6.53778 0.132691 7.83762 0.0729802H7.83874ZM17.8153 2.26239C16.5266 2.20378 16.14 2.19162 12.877 2.19162C9.61408 2.19162 9.22746 2.20378 7.93872 2.26239C6.74664 2.31657 6.10005 2.5145 5.66899 2.68147C5.09906 2.90262 4.69133 3.16469 4.2636 3.59041C3.85814 3.98301 3.54611 4.46095 3.35038 4.98919C3.18262 5.41823 2.98375 6.06178 2.92931 7.24826C2.87043 8.53094 2.85821 8.91575 2.85821 12.1634C2.85821 15.411 2.87043 15.7958 2.92931 17.0785C2.98375 18.265 3.18262 18.9085 3.35038 19.3375C3.54591 19.865 3.85809 20.3438 4.2636 20.7363C4.658 21.1399 5.13905 21.4507 5.66899 21.6453C6.10005 21.8122 6.74664 22.0102 7.93872 22.0644C9.22746 22.123 9.61297 22.1351 12.877 22.1351C16.1411 22.1351 16.5266 22.123 17.8153 22.0644C19.0074 22.0102 19.654 21.8122 20.0851 21.6453C20.655 21.4241 21.0627 21.1621 21.4905 20.7363C21.896 20.3438 22.2082 19.865 22.4037 19.3375C22.5714 18.9085 22.7703 18.265 22.8247 17.0785C22.8836 15.7958 22.8958 15.411 22.8958 12.1634C22.8958 8.91575 22.8836 8.53094 22.8247 7.24826C22.7703 6.06178 22.5714 5.41823 22.4037 4.98919C22.1815 4.42194 21.9182 4.01612 21.4905 3.59041C21.096 3.18688 20.6158 2.87632 20.0851 2.68147C19.654 2.5145 19.0074 2.31657 17.8153 2.26239ZM11.3161 15.913C12.1878 16.2742 13.1585 16.3229 14.0624 16.0509C14.9662 15.7789 15.7471 15.203 16.2718 14.4216C16.7964 13.6402 17.0322 12.7017 16.9388 11.7665C16.8455 10.8313 16.4288 9.95735 15.76 9.29392C15.3337 8.86983 14.8181 8.54511 14.2506 8.34313C13.683 8.14114 13.0775 8.06692 12.4776 8.12581C11.8778 8.1847 11.2985 8.37523 10.7815 8.68368C10.2645 8.99214 9.82266 9.41085 9.48777 9.90966C9.15287 10.4085 8.93326 10.975 8.84474 11.5684C8.75623 12.1619 8.80101 12.7674 8.97587 13.3416C9.15072 13.9157 9.4513 14.4441 9.85596 14.8888C10.2606 15.3334 10.7593 15.6832 11.3161 15.913ZM8.43533 7.74254C9.01862 7.16199 9.71109 6.70147 10.4732 6.38727C11.2353 6.07308 12.0521 5.91137 12.877 5.91137C13.7019 5.91137 14.5188 6.07308 15.2809 6.38727C16.043 6.70147 16.7354 7.16199 17.3187 7.74254C17.902 8.32309 18.3647 9.0123 18.6804 9.77083C18.9961 10.5294 19.1585 11.3423 19.1585 12.1634C19.1585 12.9844 18.9961 13.7974 18.6804 14.5559C18.3647 15.3144 17.902 16.0036 17.3187 16.5842C16.1407 17.7567 14.543 18.4154 12.877 18.4154C11.2111 18.4154 9.61334 17.7567 8.43533 16.5842C7.25732 15.4117 6.59552 13.8215 6.59552 12.1634C6.59552 10.5052 7.25732 8.91501 8.43533 7.74254ZM20.5517 6.84245C20.6962 6.70674 20.8119 6.54354 20.892 6.36252C20.972 6.1815 21.0147 5.98633 21.0176 5.78858C21.0205 5.59083 20.9835 5.39451 20.9088 5.21124C20.8341 5.02797 20.7232 4.86149 20.5827 4.72164C20.4422 4.58179 20.275 4.47143 20.0908 4.39708C19.9067 4.32273 19.7095 4.2859 19.5108 4.28878C19.3121 4.29167 19.116 4.3342 18.9341 4.41386C18.7522 4.49352 18.5883 4.6087 18.4519 4.75256C18.1867 5.03235 18.0416 5.40399 18.0472 5.78858C18.0528 6.17317 18.2088 6.54044 18.4821 6.81242C18.7554 7.0844 19.1244 7.23967 19.5108 7.24528C19.8972 7.25088 20.2706 7.10638 20.5517 6.84245Z" fill="white"/>
</svg>
