<svg width="182" height="45" viewBox="0 0 182 45" fill="none" xmlns="http://www.w3.org/2000/svg">
<path d="M21.2235 44.7674C32.3927 44.7674 41.4471 35.713 41.4471 24.5438C41.4471 13.3747 32.3927 4.32031 21.2235 4.32031C10.0544 4.32031 1 13.3747 1 24.5438C1 35.713 10.0544 44.7674 21.2235 44.7674Z" fill="#FEFEFE" stroke="#2B2A29" stroke-width="0.0813168" stroke-miterlimit="22.9256"/>
<path fill-rule="evenodd" clip-rule="evenodd" d="M15.2614 20.6776C15.3175 20.7708 15.5801 21.0853 15.6809 21.1394C16.2249 21.4319 17.214 21.312 17.4115 21.1662C17.6186 21.0131 17.7739 20.8832 17.6214 20.6492C17.4903 20.4482 17.3155 20.4576 17.1223 20.5548C16.9134 20.6599 16.8022 20.6754 16.5663 20.6816C16.0032 20.6965 15.7392 20.1116 15.8394 19.6335L15.8506 19.58C15.9757 18.9832 16.8427 19.2246 16.6714 18.5706C16.5185 17.9865 15.9818 18.418 15.6979 18.033C15.496 17.759 15.459 17.3866 15.5877 17.0763C15.812 16.5748 16.3075 16.6349 16.7575 16.6932C16.8924 16.7105 16.9796 16.7375 17.0781 16.6427C17.1229 16.5996 17.1603 16.2186 17.1697 16.1363C17.1915 15.9474 17.3614 15.6669 17.4907 15.53C17.672 15.3383 17.8871 15.2039 18.1529 15.1831C18.5575 15.1514 18.8015 15.2036 19.1258 15.4433C19.3363 15.5986 19.4667 16.0043 19.4695 16.3428C19.4713 16.553 19.4565 16.7013 19.4309 16.8571C19.2413 17.2562 19.1306 17.3673 18.6962 17.5223C18.428 17.6179 18.0196 17.5654 18.0177 17.9426C18.0164 18.1807 18.1208 18.3242 18.3645 18.3395C18.7087 18.3611 19.0497 18.2836 19.343 18.103C19.707 17.8762 19.9592 17.6591 20.181 17.2905C20.3251 17.0515 20.3598 16.7045 20.3683 16.4295C20.3822 15.9844 20.3289 15.7205 20.101 15.3397C19.7985 14.8341 19.2587 14.4791 18.6831 14.3666C18.4255 14.3162 18.0656 14.3237 17.8158 14.4046C17.3658 14.5502 16.878 14.8928 16.6387 15.305C16.3947 15.7255 16.5822 15.8348 16.0231 15.8966C15.305 15.989 14.8798 16.5227 14.6918 17.1871C14.5988 17.516 14.7549 18.0638 14.9565 18.3322C15.0562 18.4545 15.1874 18.5784 15.2962 18.6968C15.4274 18.8396 15.4513 18.8333 15.3306 18.9948C15.1647 19.2171 15.0867 19.3091 15.0525 19.6044C15.0321 19.7805 15.0186 19.9074 15.0281 20.0857C14.9101 20.0975 14.4714 20.2284 14.0869 20.3794C13.8987 20.4532 13.4239 20.6776 13.2455 20.6741C12.8527 20.6664 12.7722 19.4803 12.7927 19.1885C12.8619 18.2064 13.3008 17.681 14.0506 17.1018C14.1311 17.0396 14.1943 17.0342 14.1715 16.952C14.089 16.6536 14.0398 16.2029 14.0734 15.8966C14.1268 15.4108 14.5806 14.9508 14.9781 14.7052C15.3213 14.4933 15.6323 14.4472 16.0231 14.4299C16.1666 14.4236 16.4329 14.4237 16.5641 14.4048C16.5829 14.402 16.7417 14.1159 16.7598 14.0852C16.971 13.7238 17.0064 13.5902 17.3447 13.3263C17.7118 13.0399 18.4015 12.7897 18.8662 12.7766C19.7131 12.7527 20.1172 12.9974 20.272 13.056C20.5093 13.1461 20.839 13.4371 20.8055 13.5492C20.7961 13.5807 20.8033 24.5937 20.8357 27.5958C20.8404 28.0303 20.9344 28.2337 20.499 28.4797C20.2452 28.6173 20.0277 28.6698 19.7402 28.6791C19.6572 28.6818 18.9893 28.6504 18.987 28.6522C18.9641 28.6698 19.4295 30.1741 19.4744 30.3241C19.865 31.6368 20.2557 32.9494 20.6465 34.262H21.8765L21.888 34.2222C22.1986 33.1468 22.5091 32.0714 22.8198 30.996C23.0314 30.2639 23.2444 29.534 23.4545 28.8013C23.487 28.6976 23.5366 28.6423 23.4247 28.6537C23.1224 28.6846 22.8994 28.6891 22.5959 28.6621C22.0327 28.6089 21.7384 28.5573 21.7385 27.9238C21.7989 23.795 21.5349 14.1524 21.7432 13.5216C21.864 13.1559 22.228 13.0744 22.3959 13.0034C22.7665 12.8466 23.2315 12.764 23.6338 12.7835C24.2844 12.8152 24.6175 12.9399 25.1163 13.3572C25.4745 13.6569 25.6599 13.8901 25.9129 14.2773C25.9488 14.3322 25.9738 14.409 26.0282 14.4137C26.4812 14.4536 26.9853 14.432 27.4073 14.6351C27.8002 14.8242 28.0814 15.0634 28.2735 15.4588C28.4292 15.7793 28.4807 16.2315 28.4285 16.5831C28.4115 16.6969 28.3104 16.9033 28.3097 16.9486C28.309 17.0041 28.7284 17.3275 28.7953 17.3833C29.1676 17.6937 29.501 18.1636 29.6375 18.6313C29.7522 19.0752 29.7343 19.6926 29.6628 20.1448C29.6059 20.5047 29.537 20.5564 29.4305 20.5845C29.2842 20.623 29.0669 20.5394 28.7115 20.4399C28.6167 20.4134 28.3968 20.3334 28.1191 20.2642C27.942 20.22 27.6978 20.1549 27.5486 20.1189C27.5816 19.964 27.5803 19.8691 27.5797 19.694C27.5787 19.4585 27.4871 19.2196 27.3415 19.0354C27.3155 19.0023 27.1886 18.8621 27.2022 18.807C27.2151 18.7548 27.6092 18.3806 27.6868 18.2716C27.8928 17.9819 28.0069 17.4719 27.9165 17.1233C27.8308 16.7931 27.5788 16.3453 27.2991 16.1453C27.0995 16.0139 26.8245 15.8789 26.5837 15.861C26.148 15.8288 26.2064 15.7708 26.034 15.3914C25.8125 14.9038 25.3243 14.5684 24.834 14.3858C24.5697 14.2874 24.1685 14.2858 23.8934 14.3444C23.3539 14.4592 22.8363 14.8005 22.5411 15.2686C22.3321 15.6 22.2667 15.8095 22.2455 16.2063C22.2317 16.4679 22.2829 16.9905 22.4115 17.2173C22.6193 17.5835 22.9262 17.8604 23.2844 18.0777C23.5781 18.2559 23.9493 18.3479 24.2919 18.3031C24.5407 18.2707 24.6382 18.0781 24.5878 17.8403C24.5169 17.5055 23.9118 17.5435 23.6302 17.3983C23.0383 17.0932 22.9375 16.159 23.2671 15.639C23.4188 15.3998 23.7811 15.1995 24.0621 15.1589C24.3195 15.1216 24.671 15.1425 24.8875 15.298C25.6843 15.8707 25.3335 16.4816 25.5917 16.6484C25.6923 16.7134 25.9928 16.6511 26.1115 16.6376C26.5067 16.5958 26.8461 16.6463 27.0295 17.0488C27.1715 17.3606 27.1051 17.7277 26.917 18.0056C26.5776 18.396 26.1222 17.9631 25.9568 18.501C25.6965 19.3474 27.0744 18.8148 26.7439 20.0965C26.6741 20.3669 26.5466 20.5195 26.2876 20.6234C25.8972 20.696 25.8265 20.6469 25.4706 20.5137C25.1901 20.4086 24.9485 20.4934 24.9274 20.8237C24.8985 21.2741 25.5937 21.4143 25.9299 21.4046C26.3196 21.3934 26.5492 21.3538 26.9128 21.149C27.0074 21.0957 27.1027 21.0241 27.1798 20.9477C27.2754 20.853 27.3214 20.8146 27.3824 20.711C27.6262 20.8345 28.5242 21.0523 28.799 21.2236C29.1103 21.4178 29.2012 21.4775 29.3499 21.7884C29.626 22.3665 29.371 22.9836 29.0909 23.5348C28.97 23.7727 28.7722 23.9736 28.5491 24.1192C28.3188 24.2694 28.1641 24.2453 27.9666 24.4148C27.8394 24.524 27.9276 24.7377 27.9681 24.8699C28.1446 25.4462 28.0869 25.7955 27.9056 26.3519C27.7482 26.835 27.4668 27.1842 27.0641 27.4889C26.8152 27.6773 26.3595 27.9198 26.0488 27.9528C25.3229 28.0241 24.606 27.8586 24.0689 27.342C23.7694 27.054 23.5061 26.7951 23.4312 26.3727C23.4008 26.2007 23.3881 25.7867 23.3509 25.6794C23.2921 25.5096 23.0743 25.4454 22.9221 25.4956C22.6487 25.5858 22.6296 25.8237 22.637 26.0698C22.6633 26.9489 23.1931 27.7669 23.9004 28.2637C24.2145 28.4803 24.428 28.4644 24.3091 28.8851C24.0235 29.8954 23.7371 30.9056 23.4515 31.9159C23.3008 32.4486 23.1503 32.9813 22.9996 33.5142L22.9943 33.5335C22.956 33.6709 22.9218 33.817 22.8769 33.9517C22.8414 34.0578 22.7414 34.2379 22.8674 34.3172C22.9504 34.3695 23.4496 34.4357 23.5799 34.4555C23.7231 34.4773 24.0191 34.4888 23.7096 34.6014C23.4892 34.6815 23.2524 34.7526 23.0286 34.8289C22.6616 34.9546 22.2946 35.0803 21.9276 35.2059C21.8876 35.2195 21.8476 35.2328 21.8076 35.246C21.6621 35.2936 21.3492 35.3549 21.7063 35.4031C22.2195 35.4724 22.7369 35.5249 23.2512 35.5874C23.3585 35.5985 23.8567 35.6437 23.9165 35.6737C23.9749 35.7031 23.575 35.7841 23.5629 35.7868C23.3676 35.8298 23.1787 35.8729 22.984 35.9193C22.6137 36.0077 22.2433 36.096 21.873 36.1843C21.8354 36.1928 21.7979 36.2013 21.7602 36.2098C21.7236 36.2179 21.4227 36.2658 21.4637 36.3155L21.4674 36.3184C21.526 36.3581 22.1835 36.4575 22.3088 36.4785C22.4452 36.5037 22.5816 36.5288 22.7179 36.554L22.7385 36.5579C22.9651 36.5997 23.1917 36.6421 23.4183 36.6834C23.4644 36.6909 23.8962 36.7508 23.8721 36.8015C23.8599 36.8271 22.8593 37.1374 22.7385 37.1764C22.5412 37.2414 22.3447 37.3097 22.1464 37.3715C22.0613 37.3979 21.8717 37.4417 21.8065 37.4738C21.6857 37.5332 21.9413 37.6063 21.9789 37.6185C22.2435 37.7039 22.5138 37.781 22.7796 37.8655C22.8509 37.8874 23.3163 38.0249 23.334 38.0548C23.3233 38.0753 22.2691 38.0487 22.1501 38.047C22.0188 38.0457 21.8874 38.0444 21.756 38.0431L21.7352 38.0429C21.5895 38.0415 21.4437 38.0398 21.2979 38.038L21.2774 38.0378C21.0502 38.0348 20.8231 38.031 20.5959 38.0277C20.2452 38.0224 19.8715 38.0123 19.5223 38.023C19.3992 38.0268 19.0365 38.0586 19.3745 37.9232C19.8319 37.7397 20.2949 37.5651 20.7543 37.3866C20.9412 37.3158 21.1288 37.2469 21.3156 37.1761C21.4605 37.121 21.6364 37.0583 21.7754 36.9955C21.8603 36.9572 21.9371 36.9242 21.8043 36.9105C21.5165 36.8807 21.1881 36.8851 20.8955 36.8779C20.4874 36.8618 20.0793 36.8457 19.6713 36.8296L19.6502 36.8287C19.5106 36.823 19.3701 36.8151 19.2305 36.811C19.1067 36.8075 18.567 36.8414 19.0078 36.6833C19.5773 36.4789 20.1484 36.2777 20.7183 36.0742C20.7832 36.0531 21.256 35.9076 21.2475 35.854C21.2446 35.835 21.0651 35.8206 21.0467 35.8186C20.4544 35.7548 19.8461 35.7173 19.2509 35.6728C19.0869 35.6603 18.5895 35.6674 19.0638 35.5187C19.6243 35.343 20.1856 35.1692 20.7505 35.0081C20.8028 34.9931 20.9869 34.931 20.9829 34.888C20.9787 34.8451 20.6204 34.7815 20.5546 34.772C20.0638 34.7017 19.5738 34.6251 19.0814 34.5649C19.008 34.556 18.5273 34.521 18.8566 34.4417C19.0139 34.4055 19.1729 34.3807 19.3312 34.3496C19.5798 34.3007 19.6947 34.3046 19.6188 34.0213C19.5572 33.7914 19.4813 33.5566 19.4158 33.3261C19.3402 33.0591 19.2647 32.7921 19.189 32.5251C18.9622 31.724 18.7354 30.923 18.5086 30.122C18.3952 29.7213 18.2638 29.2965 18.162 28.8961C18.0859 28.597 18.0695 28.4991 18.3622 28.3291C18.5632 28.2125 18.668 28.1553 18.8497 27.9994C19.0508 27.8269 19.4415 27.3429 19.5543 27.1044C19.682 26.8136 19.8016 26.0515 19.7404 25.7384C19.7116 25.591 19.4765 25.5332 19.344 25.5476C19.1815 25.5651 19.1079 25.7693 19.0777 25.9067C19.0054 26.2356 18.9809 26.5378 18.847 26.8599C18.8234 26.9075 18.7962 26.9513 18.768 26.9963C18.561 27.3267 18.3954 27.608 18.05 27.809C17.5407 28.1053 17.149 28.0667 16.5933 28.0587C16.1528 28.0524 15.502 27.7208 15.1884 27.408C14.8101 27.0308 14.5856 26.6272 14.4548 26.1118C14.4008 25.8989 14.3842 25.3135 14.4218 25.1015C14.4408 24.9945 14.6072 24.6209 14.576 24.5683C14.4979 24.4367 13.9971 24.2177 13.8344 24.1135C13.7654 24.0679 13.7071 24.0251 13.6445 23.9708C13.1606 23.5516 13.0086 23.0876 13.0563 22.462C13.0978 21.9187 13.2853 21.6269 13.72 21.2865C13.8456 21.1883 14.0209 21.1081 14.2436 21.0228C14.4072 20.9602 14.5816 20.8851 14.7347 20.8426C14.9826 20.7739 15.1251 20.666 15.2614 20.6776ZM22.637 22.2492C22.5501 22.4638 22.4865 22.6542 22.4783 22.888C22.4685 23.1644 22.4995 23.3231 22.6364 23.5591C22.7852 23.8158 22.9322 24.0661 23.1907 24.2242C23.5122 24.4208 23.8118 24.5306 24.1912 24.491C24.5065 24.4581 24.6125 24.3694 24.7041 24.7059C24.7762 24.9965 24.95 25.2108 25.1765 25.4016C26.0103 26.1046 26.544 25.4407 26.2098 25.0566C26.0993 24.9296 25.8467 24.8839 25.6661 24.7331C25.2888 24.4182 25.3535 23.8053 25.7201 23.5107C26.0439 23.3116 26.1573 23.3502 26.5082 23.4317C26.7296 23.4832 27.2043 23.5214 27.2725 23.2257C27.324 23.0018 27.2335 22.804 27.0361 22.6941C26.7335 22.5258 26.5243 22.5222 26.1898 22.5143C25.8162 22.5053 25.5899 22.5275 25.2883 22.7659C24.9544 23.0299 24.8737 23.145 24.6417 23.4857C24.5731 23.5865 24.2806 23.6372 24.1672 23.631C23.7568 23.6089 23.4038 23.417 23.3524 22.9783C23.3179 22.6849 23.3449 22.513 23.5507 22.3115C23.6929 22.1722 23.817 21.9553 23.7114 21.7604C23.5321 21.4798 23.3411 21.5283 23.0807 21.3485C22.9481 21.2499 22.8612 21.1446 22.8062 20.9869C22.6714 20.6 22.8437 20.2274 23.2067 20.0452C23.6932 19.801 23.907 20.1089 24.283 20.0898C24.5493 20.0763 24.6411 19.8019 24.5774 19.5852C24.4671 19.2097 24.0224 19.1304 23.6881 19.1144C23.2243 19.0922 22.9289 19.1267 22.5692 19.4408C22.1404 19.815 21.9605 20.1751 21.9809 20.7475C21.994 21.1178 22.0139 21.2602 22.2595 21.5422C22.3436 21.6368 22.6723 21.9428 22.701 21.9922C22.7171 22.0697 22.6665 22.1778 22.637 22.2492ZM19.8701 23.6417C19.6548 24.0001 19.5895 24.1101 19.1842 24.3224C18.9781 24.4288 18.8086 24.5169 18.575 24.5196C18.3873 24.5217 18.2972 24.4724 18.1453 24.4643C17.8934 24.4509 17.8796 24.5874 17.8323 24.7854C17.7527 25.1193 17.2229 25.5895 16.8972 25.6893C16.7305 25.7404 16.3749 25.6958 16.2983 25.5168C16.2123 25.3156 16.2485 25.0524 16.4723 24.9604C16.9387 24.7688 17.1544 24.6163 17.1349 24.0812C17.1247 23.8913 17.0038 23.6175 16.8394 23.5127L16.7949 23.485C16.5425 23.3271 16.3511 23.3522 16.0726 23.4252C15.8405 23.486 15.4083 23.5267 15.2867 23.2568C15.2653 23.2043 15.2843 22.9948 15.2963 22.9359C15.3361 22.7404 15.746 22.5652 15.9119 22.5475C16.2184 22.5147 16.4854 22.4981 16.7934 22.536C17.0939 22.573 17.4988 22.9345 17.6921 23.1616C17.7615 23.2432 17.8965 23.5097 17.984 23.5437C18.1434 23.6044 18.2721 23.6508 18.4457 23.6284C18.8238 23.5744 19.1294 23.439 19.1978 23.0244C19.3147 22.3151 18.8393 22.3332 18.8026 21.9572C18.7694 21.6171 19.1741 21.5175 19.3966 21.3981C19.9956 21.0765 19.8946 20.2147 19.2465 19.9966C18.8825 19.8741 18.7366 20.0215 18.4243 20.086C18.2812 20.1156 18.0589 20.0792 18.0072 19.9275C17.8855 19.5706 18.0551 19.3144 18.3931 19.1893C18.6538 19.0927 19.1978 19.0996 19.4693 19.1545C19.8753 19.2364 20.2887 19.6964 20.4684 20.0531C20.6221 20.358 20.601 20.9725 20.4858 21.2921C20.429 21.4497 20.0914 21.7566 19.9588 21.8813C19.8878 21.9481 19.8223 21.9747 19.8512 22.0626C19.9312 22.3047 20.0322 22.4562 20.0642 22.7209C20.1075 23.0788 20.0555 23.3341 19.8701 23.6417ZM29.0383 27.3097C28.9522 27.4113 28.8661 27.5128 28.7797 27.6141C27.9237 28.6176 26.9892 29.631 26.1755 30.6576C25.6615 31.3061 25.2512 32.0492 24.9985 32.8384C24.878 33.2148 24.8192 33.3654 24.8096 33.7678C24.7857 34.7711 24.7926 35.8028 24.7838 36.8095C24.7802 37.2014 24.8006 37.7595 24.7684 38.1309C24.7315 38.5576 24.2753 39.1025 23.8631 39.2088C23.6209 39.2712 21.7679 39.2323 21.373 39.231C20.5944 39.2286 19.7528 39.2555 18.9842 39.2228C18.5585 39.2022 18.0837 38.8008 17.9508 38.3968C17.8583 38.1151 17.8875 36.624 17.8846 36.2209C17.8778 35.2596 17.9299 34.0584 17.7325 33.1349C17.5635 32.3446 16.9269 31.2385 16.4066 30.6199C15.2353 29.2273 14.0555 27.8829 12.9291 26.448C12.456 25.8443 12.0184 24.952 11.7349 24.2355C11.4695 23.5652 11.2294 22.4297 11.1982 21.7161C11.1765 20.8748 11.1751 20.0045 11.3187 19.1748C11.5515 17.8292 12.4274 15.8314 13.2557 14.7527C13.8475 13.9957 14.6504 13.2623 15.4048 12.6679C16.4323 11.8582 16.9844 11.6346 18.2113 11.2277C19.8885 10.6846 21.7751 10.7864 23.4893 11.0798C24.0187 11.1704 25.1565 11.5393 25.6179 11.7812C26.0725 12.0196 26.6572 12.3125 27.0773 12.5897C28.9579 13.8312 29.7859 15.2061 30.6539 17.2384C31.0059 18.0668 31.2377 19.3503 31.3273 20.2518C31.4572 21.5579 31.2823 22.3621 30.9841 23.6189C30.7071 24.787 29.8007 26.3916 29.0383 27.3097Z" fill="#015138"/>
<path d="M71.0744 27.8789H68.2441V13.0797L56.6553 28.1605H55.909V7.26417H58.7253V22.0493L70.3281 6.96846H71.0744V27.8789ZM82.4942 20.0076C84.3716 20.6928 85.3104 21.9226 85.3104 23.6968C85.3104 25.0955 84.78 26.1892 83.7192 26.9777C82.6678 27.7663 81.2363 28.1605 79.4245 28.1605C77.425 28.1605 75.5803 27.5973 73.8906 26.4708L75.2424 24.3305C76.4346 25.4288 77.8709 25.978 79.5512 25.978C80.4618 25.978 81.1846 25.7714 81.7197 25.3584C82.2548 24.936 82.5223 24.3821 82.5223 23.6968C82.5223 21.8944 81.3958 20.9932 79.1429 20.9932C78.5045 20.9932 77.946 21.0214 77.4672 21.0777V18.9374C77.6362 18.9562 78.2229 18.9656 79.2274 18.9656C80.1473 18.9656 80.8608 18.7872 81.3677 18.4305C81.884 18.0644 82.1421 17.5621 82.1421 16.9238C82.1421 16.2198 81.9075 15.6753 81.4381 15.2904C80.9781 14.8961 80.3304 14.699 79.4949 14.699C78.2276 14.699 76.9087 15.0839 75.5381 15.8536L74.5524 13.6852C76.2797 12.8966 77.9741 12.5023 79.6357 12.5023C81.1189 12.5023 82.3627 12.8966 83.3672 13.6852C84.3716 14.4643 84.8739 15.5063 84.8739 16.8112C84.8739 18.3601 84.0806 19.4255 82.4942 20.0076ZM97.1667 19.7823C99.0911 20.4018 100.053 21.6691 100.053 23.5842C100.053 24.8233 99.5746 25.8512 98.617 26.6679C97.6595 27.4752 96.2232 27.8789 94.3082 27.8789H88.1689V12.8262C90.2904 12.7136 92.2524 12.6572 94.0548 12.6572C95.7539 12.6572 97.0728 13.0046 98.0115 13.6992C98.9503 14.3845 99.4197 15.389 99.4197 16.7126C99.4197 17.3791 99.2178 17.9893 98.8142 18.5431C98.4105 19.097 97.8613 19.51 97.1667 19.7823ZM90.7035 18.9374C90.8537 18.9562 91.9332 18.9656 93.9421 18.9656C95.8478 18.9656 96.8006 18.224 96.8006 16.7408C96.8006 16.1024 96.5753 15.6049 96.1247 15.2482C95.6835 14.882 95.0592 14.699 94.2519 14.699C92.703 14.699 91.5202 14.7365 90.7035 14.8116V18.9374ZM90.7035 25.7386C91.7642 25.8043 92.8626 25.8371 93.9984 25.8371C96.242 25.8371 97.3638 25.0204 97.3638 23.387C97.3638 22.5985 97.0728 21.993 96.4908 21.5706C95.9088 21.1388 95.0592 20.9228 93.9421 20.9228C92.5058 20.9228 91.4263 20.9463 90.7035 20.9932V25.7386ZM115.754 27.8789H113.078V17.5575L103.672 28.2873H103.067V12.798H105.756V23.1195L115.148 12.3897H115.754V27.8789ZM132.088 27.8789H129.412V14.9243H125.371C125.324 17.0458 125.108 19.0078 124.723 20.8102C124.339 22.6032 123.818 24.0864 123.16 25.2598C122.503 26.4239 121.79 27.1795 121.02 27.5269C120.25 27.8742 119.326 28.0479 118.246 28.0479V25.5978C119.926 25.5978 121.114 24.2976 121.809 21.6973C122.513 19.0876 122.865 16.5906 122.865 14.2062V12.798H132.088V27.8789ZM148.506 27.8789H145.831V17.5575L136.425 28.2873H135.819V12.798H138.509V23.1195L147.901 12.3897H148.506V27.8789ZM164.643 27.8789H161.954V21.0777H155.012V27.8789H152.322V12.798H155.012V18.8529H161.954V12.798H164.643V27.8789ZM176.823 26.1469C175.735 27.4893 174.101 28.1605 171.923 28.1605C170.731 28.1605 169.703 27.7287 168.84 26.8651C167.976 26.0014 167.544 24.936 167.544 23.6687C167.544 22.1385 168.206 20.8477 169.529 19.7964C170.862 18.745 172.571 18.2193 174.655 18.2193C175.228 18.2193 175.875 18.3319 176.598 18.5572C176.598 16.1165 175.5 14.8961 173.303 14.8961C171.66 14.8961 170.374 15.3514 169.445 16.262L168.319 14.0372C168.769 13.6523 169.45 13.3003 170.36 12.9811C171.28 12.6619 172.167 12.5023 173.022 12.5023C175.143 12.5023 176.711 12.9858 177.725 13.9527C178.739 14.9196 179.245 16.5248 179.245 18.7684V24.1615C179.245 25.4851 179.64 26.3675 180.428 26.8087V28.1324C179.264 28.1324 178.419 27.9587 177.894 27.6114C177.377 27.264 177.021 26.7759 176.823 26.1469ZM176.598 20.4722C175.641 20.2751 175.045 20.1765 174.81 20.1765C173.458 20.1765 172.355 20.5286 171.501 21.2326C170.647 21.9367 170.219 22.7581 170.219 23.6968C170.219 25.2739 171.144 26.0624 172.993 26.0624C174.317 26.0624 175.519 25.4194 176.598 24.1333V20.4722Z" fill="#FEFEFE"/>
<path d="M71.0744 27.8789V27.9196H71.115V27.8789H71.0744ZM68.2441 27.8789H68.2034V27.9196H68.2441V27.8789ZM68.2441 13.0797H68.2847V12.96L68.2119 13.0549L68.2441 13.0797ZM56.6553 28.1605V28.2012H56.6754L56.6876 28.1853L56.6553 28.1605ZM55.909 28.1605H55.8684V28.2012H55.909V28.1605ZM55.909 7.26417V7.22351H55.8684V7.26417H55.909ZM58.7253 7.26417H58.7659V7.22351H58.7253V7.26417ZM58.7253 22.0493H58.6846V22.1689L58.7575 22.0741L58.7253 22.0493ZM70.3281 6.96846V6.92781H70.3081L70.2959 6.94367L70.3281 6.96846ZM71.0744 6.96846H71.115V6.92781H71.0744V6.96846ZM71.0744 27.8382H68.2441V27.9196H71.0744V27.8382ZM68.2847 27.8789V13.0797H68.2034V27.8789H68.2847ZM68.2119 13.0549L56.6231 28.1358L56.6876 28.1853L68.2763 13.1044L68.2119 13.0549ZM56.6553 28.1199H55.909V28.2012H56.6553V28.1199ZM55.9497 28.1605V7.26417H55.8684V28.1605H55.9497ZM55.909 7.30483H58.7253V7.22351H55.909V7.30483ZM58.6846 7.26417V22.0493H58.7659V7.26417H58.6846ZM58.7575 22.0741L70.3603 6.99326L70.2959 6.94367L58.693 22.0245L58.7575 22.0741ZM70.3281 7.00912H71.0744V6.92781H70.3281V7.00912ZM71.0337 6.96846V27.8789H71.115V6.96846H71.0337ZM82.4942 20.0076L82.4802 19.9694L82.3759 20.0077L82.4802 20.0458L82.4942 20.0076ZM83.7192 26.9777L83.695 26.9451L83.6948 26.9452L83.7192 26.9777ZM73.8906 26.4708L73.8562 26.4491L73.8351 26.4826L73.8681 26.5046L73.8906 26.4708ZM75.2424 24.3305L75.2699 24.3006L75.2341 24.2675L75.208 24.3088L75.2424 24.3305ZM81.7197 25.3584L81.7446 25.3906L81.7449 25.3903L81.7197 25.3584ZM77.4672 21.0777H77.4266V21.1235L77.472 21.1181L77.4672 21.0777ZM77.4672 18.9374L77.4717 18.897L77.4266 18.892V18.9374H77.4672ZM81.3677 18.4305L81.3911 18.4637L81.3912 18.4637L81.3677 18.4305ZM81.4381 15.2904L81.4116 15.3213L81.4123 15.3218L81.4381 15.2904ZM75.5381 15.8536L75.5011 15.8705L75.5194 15.9108L75.558 15.8891L75.5381 15.8536ZM74.5524 13.6852L74.5355 13.6482L74.4986 13.665L74.5154 13.702L74.5524 13.6852ZM83.3672 13.6852L83.3421 13.7171L83.3423 13.7173L83.3672 13.6852ZM82.4802 20.0458C83.4138 20.3865 84.1105 20.8614 84.574 21.4685C85.0372 22.0753 85.2697 22.8173 85.2697 23.6968H85.351C85.351 22.8022 85.1142 22.0421 84.6387 21.4192C84.1634 20.7966 83.452 20.3139 82.5081 19.9694L82.4802 20.0458ZM85.2697 23.6968C85.2697 25.0836 84.7447 26.1647 83.695 26.9451L83.7435 27.0103C84.8153 26.2136 85.351 25.1075 85.351 23.6968H85.2697ZM83.6948 26.9452C82.6527 27.7268 81.2307 28.1199 79.4245 28.1199V28.2012C81.2418 28.2012 82.683 27.8057 83.7436 27.0102L83.6948 26.9452ZM79.4245 28.1199C77.4331 28.1199 75.5963 27.5591 73.9132 26.437L73.8681 26.5046C75.5644 27.6355 77.4168 28.2012 79.4245 28.2012V28.1199ZM73.925 26.4925L75.2768 24.3522L75.208 24.3088L73.8562 26.4491L73.925 26.4925ZM75.2148 24.3604C76.4149 25.4659 77.8611 26.0186 79.5512 26.0186V25.9373C77.8807 25.9373 76.4543 25.3917 75.2699 24.3006L75.2148 24.3604ZM79.5512 26.0186C80.4677 26.0186 81.2002 25.8107 81.7446 25.3906L81.6949 25.3262C81.169 25.7321 80.4559 25.9373 79.5512 25.9373V26.0186ZM81.7449 25.3903C82.2898 24.9601 82.563 24.3945 82.563 23.6968H82.4817C82.4817 24.3697 82.2198 24.9118 81.6945 25.3265L81.7449 25.3903ZM82.563 23.6968C82.563 22.7867 82.2781 22.0976 81.7029 21.6374C81.1293 21.1786 80.2737 20.9526 79.1429 20.9526V21.0339C80.265 21.0339 81.0991 21.2585 81.6521 21.7009C82.2033 22.1419 82.4817 22.8046 82.4817 23.6968H82.563ZM79.1429 20.9526C78.5034 20.9526 77.9432 20.9808 77.4625 21.0374L77.472 21.1181C77.9487 21.062 78.5056 21.0339 79.1429 21.0339V20.9526ZM77.5079 21.0777V18.9374H77.4266V21.0777H77.5079ZM77.4627 18.9778C77.6346 18.9969 78.2243 19.0062 79.2274 19.0062V18.9249C78.2215 18.9249 77.6378 18.9155 77.4717 18.897L77.4627 18.9778ZM79.2274 19.0062C80.1518 19.0062 80.8747 18.8271 81.3911 18.4637L81.3443 18.3972C80.8468 18.7473 80.1428 18.9249 79.2274 18.9249V19.0062ZM81.3912 18.4637C81.9184 18.0898 82.1828 17.5752 82.1828 16.9238H82.1015C82.1015 17.5491 81.8496 18.0389 81.3442 18.3973L81.3912 18.4637ZM82.1828 16.9238C82.1828 16.2097 81.9442 15.6528 81.4639 15.259L81.4123 15.3218C81.8707 15.6977 82.1015 16.2298 82.1015 16.9238H82.1828ZM81.4645 15.2595C80.9948 14.8569 80.3364 14.6583 79.4949 14.6583V14.7396C80.3243 14.7396 80.9614 14.9354 81.4116 15.3213L81.4645 15.2595ZM79.4949 14.6583C78.2191 14.6583 76.8934 15.0458 75.5182 15.8182L75.558 15.8891C76.9239 15.1219 78.2361 14.7396 79.4949 14.7396V14.6583ZM75.5751 15.8368L74.5894 13.6683L74.5154 13.702L75.5011 15.8705L75.5751 15.8368ZM74.5693 13.7221C76.292 12.9357 77.9807 12.543 79.6357 12.543V12.4617C77.9675 12.4617 76.2674 12.8575 74.5355 13.6482L74.5693 13.7221ZM79.6357 12.543C81.1113 12.543 82.3459 12.9351 83.3421 13.7171L83.3923 13.6532C82.3796 12.8581 81.1265 12.4617 79.6357 12.4617V12.543ZM83.3423 13.7173C84.3365 14.4885 84.8332 15.5185 84.8332 16.8112H84.9145C84.9145 15.4941 84.4068 14.4401 83.3921 13.653L83.3423 13.7173ZM84.8332 16.8112C84.8332 17.5784 84.6369 18.2231 84.2463 18.7477C83.8556 19.2725 83.268 19.6804 82.4802 19.9694L82.5082 20.0457C83.3068 19.7527 83.9091 19.3368 84.3116 18.7962C84.7142 18.2554 84.9145 17.5929 84.9145 16.8112H84.8332ZM97.1667 19.7823L97.1518 19.7444L97.0457 19.786L97.1542 19.821L97.1667 19.7823ZM98.617 26.6679L98.6432 26.699L98.6434 26.6989L98.617 26.6679ZM88.1689 27.8789H88.1282V27.9196H88.1689V27.8789ZM88.1689 12.8262L88.1667 12.7856L88.1282 12.7876V12.8262H88.1689ZM98.0115 13.6992L97.9874 13.7319L97.9876 13.7321L98.0115 13.6992ZM90.7035 18.9374H90.6628V18.9733L90.6984 18.9777L90.7035 18.9374ZM96.1247 15.2482L96.0987 15.2795L96.0994 15.28L96.1247 15.2482ZM90.7035 14.8116L90.6997 14.7712L90.6628 14.7745V14.8116H90.7035ZM90.7035 25.7386H90.6628V25.7768L90.7009 25.7792L90.7035 25.7386ZM96.4908 21.5706L96.4666 21.6032L96.4669 21.6035L96.4908 21.5706ZM90.7035 20.9932L90.7008 20.9527L90.6628 20.9551V20.9932H90.7035ZM97.1542 19.821C98.1106 20.1289 98.8244 20.5966 99.2993 21.222C99.774 21.8472 100.013 22.6337 100.013 23.5842H100.094C100.094 22.6196 99.8515 21.8149 99.364 21.1728C98.8767 20.531 98.1471 20.0552 97.1791 19.7436L97.1542 19.821ZM100.013 23.5842C100.013 24.8112 99.5393 25.8279 98.5907 26.637L98.6434 26.6989C99.6098 25.8746 100.094 24.8354 100.094 23.5842H100.013ZM98.5908 26.6368C97.6437 27.4354 96.2185 27.8382 94.3082 27.8382V27.9196C96.228 27.9196 97.6754 27.5151 98.6432 26.699L98.5908 26.6368ZM94.3082 27.8382H88.1689V27.9196H94.3082V27.8382ZM88.2095 27.8789V12.8262H88.1282V27.8789H88.2095ZM88.171 12.8668C90.292 12.7542 92.2532 12.6979 94.0548 12.6979V12.6166C92.2515 12.6166 90.2888 12.6729 88.1667 12.7856L88.171 12.8668ZM94.0548 12.6979C95.749 12.6979 97.0582 13.0443 97.9874 13.7319L98.0357 13.6665C97.0875 12.9648 95.7588 12.6166 94.0548 12.6166V12.6979ZM97.9876 13.7321C98.9143 14.4086 99.379 15.3999 99.379 16.7126H99.4603C99.4603 15.3781 98.9863 14.3605 98.0355 13.6664L97.9876 13.7321ZM99.379 16.7126C99.379 17.3702 99.1801 17.9721 98.7813 18.5192L98.847 18.5671C99.2556 18.0065 99.4603 17.388 99.4603 16.7126H99.379ZM98.7813 18.5192C98.3826 19.0662 97.84 19.4747 97.1518 19.7444L97.1815 19.8201C97.8827 19.5453 98.4384 19.1277 98.847 18.5671L98.7813 18.5192ZM90.6984 18.9777C90.7765 18.9875 91.0873 18.9945 91.6254 18.9992C92.1654 19.0039 92.9376 19.0062 93.9421 19.0062V18.9249C92.9377 18.9249 92.1657 18.9226 91.6261 18.9179C91.0847 18.9132 90.7806 18.9061 90.7085 18.8971L90.6984 18.9777ZM93.9421 19.0062C94.8991 19.0062 95.6243 18.8202 96.1109 18.4414C96.5995 18.0612 96.8412 17.4917 96.8412 16.7408H96.7599C96.7599 17.473 96.5252 18.0159 96.061 18.3773C95.5948 18.7401 94.8908 18.9249 93.9421 18.9249V19.0062ZM96.8412 16.7408C96.8412 16.0916 96.6114 15.5816 96.1499 15.2163L96.0994 15.28C96.5391 15.6281 96.7599 16.1133 96.7599 16.7408H96.8412ZM96.1506 15.2169C95.6997 14.8426 95.0649 14.6583 94.2519 14.6583V14.7396C95.0535 14.7396 95.6673 14.9214 96.0987 15.2794L96.1506 15.2169ZM94.2519 14.6583C92.7026 14.6583 91.5183 14.6959 90.6997 14.7712L90.7072 14.8521C91.522 14.7772 92.7033 14.7396 94.2519 14.7396V14.6583ZM90.6628 14.8116V18.9374H90.7441V14.8116H90.6628ZM90.7009 25.7792C91.7626 25.8449 92.8618 25.8778 93.9984 25.8778V25.7965C92.8633 25.7965 91.7659 25.7637 90.706 25.698L90.7009 25.7792ZM93.9984 25.8778C95.124 25.8778 95.9754 25.6732 96.5464 25.2575C97.1198 24.8401 97.4045 24.2141 97.4045 23.387H97.3232C97.3232 24.1934 97.047 24.7925 96.4985 25.1917C95.9477 25.5928 95.1165 25.7965 93.9984 25.7965V25.8778ZM97.4045 23.387C97.4045 22.5869 97.1084 21.9686 96.5147 21.5377L96.4669 21.6035C97.0373 22.0174 97.3232 22.6101 97.3232 23.387H97.4045ZM96.515 21.5379C95.9231 21.0988 95.0635 20.8822 93.9421 20.8822V20.9635C95.0549 20.9635 95.8944 21.1787 96.4666 21.6032L96.515 21.5379ZM93.9421 20.8822C92.5056 20.8822 91.425 20.9056 90.7008 20.9527L90.7061 21.0338C91.4276 20.987 92.506 20.9635 93.9421 20.9635V20.8822ZM90.6628 20.9932V25.7386H90.7441V20.9932H90.6628ZM115.754 27.8789V27.9196H115.794V27.8789H115.754ZM113.078 27.8789H113.038V27.9196H113.078V27.8789ZM113.078 17.5575H113.119V17.4494L113.048 17.5307L113.078 17.5575ZM103.672 28.2873V28.3279H103.691L103.703 28.3141L103.672 28.2873ZM103.067 28.2873H103.026V28.3279H103.067V28.2873ZM103.067 12.798V12.7574H103.026V12.798H103.067ZM105.756 12.798H105.797V12.7574H105.756V12.798ZM105.756 23.1195H105.715V23.2277L105.787 23.1463L105.756 23.1195ZM115.148 12.3897V12.349H115.13L115.118 12.3629L115.148 12.3897ZM115.754 12.3897H115.794V12.349H115.754V12.3897ZM115.754 27.8382H113.078V27.9196H115.754V27.8382ZM113.119 27.8789V17.5575H113.038V27.8789H113.119ZM113.048 17.5307L103.642 28.2605L103.703 28.3141L113.109 17.5843L113.048 17.5307ZM103.672 28.2466H103.067V28.3279H103.672V28.2466ZM103.107 28.2873V12.798H103.026V28.2873H103.107ZM103.067 12.8387H105.756V12.7574H103.067V12.8387ZM105.715 12.798V23.1195H105.797V12.798H105.715ZM105.787 23.1463L115.179 12.4165L115.118 12.3629L105.726 23.0927L105.787 23.1463ZM115.148 12.4303H115.754V12.349H115.148V12.4303ZM115.713 12.3897V27.8789H115.794V12.3897H115.713ZM132.088 27.8789V27.9196H132.128V27.8789H132.088ZM129.412 27.8789H129.372V27.9196H129.412V27.8789ZM129.412 14.9243H129.453V14.8836H129.412V14.9243ZM125.371 14.9243V14.8836H125.331L125.33 14.9234L125.371 14.9243ZM124.723 20.8102L124.763 20.8187L124.763 20.8187L124.723 20.8102ZM123.16 25.2598L123.196 25.2798L123.196 25.2797L123.16 25.2598ZM118.246 28.0479H118.205V28.0885H118.246V28.0479ZM118.246 25.5978V25.5571H118.205V25.5978H118.246ZM121.809 21.6973L121.769 21.6867L121.769 21.6868L121.809 21.6973ZM122.865 12.798V12.7574H122.824V12.798H122.865ZM132.088 12.798H132.128V12.7574H132.088V12.798ZM132.088 27.8382H129.412V27.9196H132.088V27.8382ZM129.453 27.8789V14.9243H129.372V27.8789H129.453ZM129.412 14.8836H125.371V14.9649H129.412V14.8836ZM125.33 14.9234C125.284 17.0428 125.068 19.0022 124.684 20.8017L124.763 20.8187C125.149 19.0135 125.365 17.0489 125.412 14.9252L125.33 14.9234ZM124.684 20.8017C124.299 22.592 123.779 24.0711 123.125 25.24L123.196 25.2797C123.856 24.1017 124.378 22.6144 124.763 20.8187L124.684 20.8017ZM123.125 25.2398C122.47 26.4004 121.762 27.1476 121.003 27.4898L121.037 27.5639C121.818 27.2115 122.537 26.4473 123.196 25.2798L123.125 25.2398ZM121.003 27.4898C120.24 27.8342 119.321 28.0072 118.246 28.0072V28.0885C119.33 28.0885 120.261 27.9142 121.037 27.5639L121.003 27.4898ZM118.287 28.0479V25.5978H118.205V28.0479H118.287ZM118.246 25.6384C119.098 25.6384 119.826 25.3081 120.427 24.6501C121.027 23.9933 121.5 23.0112 121.848 21.7078L121.769 21.6868C121.423 22.9837 120.955 23.9519 120.367 24.5952C119.78 25.2373 119.074 25.5571 118.246 25.5571V25.6384ZM121.848 21.7079C122.553 19.0952 122.905 16.5946 122.905 14.2062H122.824C122.824 16.5865 122.473 19.08 121.769 21.6867L121.848 21.7079ZM122.905 14.2062V12.798H122.824V14.2062H122.905ZM122.865 12.8387H132.088V12.7574H122.865V12.8387ZM132.047 12.798V27.8789H132.128V12.798H132.047ZM148.506 27.8789V27.9196H148.547V27.8789H148.506ZM145.831 27.8789H145.79V27.9196H145.831V27.8789ZM145.831 17.5575H145.872V17.4494L145.8 17.5307L145.831 17.5575ZM136.425 28.2873V28.3279H136.443L136.455 28.3141L136.425 28.2873ZM135.819 28.2873H135.779V28.3279H135.819V28.2873ZM135.819 12.798V12.7574H135.779V12.798H135.819ZM138.509 12.798H138.549V12.7574H138.509V12.798ZM138.509 23.1195H138.468V23.2277L138.539 23.1463L138.509 23.1195ZM147.901 12.3897V12.349H147.882L147.87 12.3629L147.901 12.3897ZM148.506 12.3897H148.547V12.349H148.506V12.3897ZM148.506 27.8382H145.831V27.9196H148.506V27.8382ZM145.872 27.8789V17.5575H145.79V27.8789H145.872ZM145.8 17.5307L136.394 28.2605L136.455 28.3141L145.862 17.5843L145.8 17.5307ZM136.425 28.2466H135.819V28.3279H136.425V28.2466ZM135.86 28.2873V12.798H135.779V28.2873H135.86ZM135.819 12.8387H138.509V12.7574H135.819V12.8387ZM138.468 12.798V23.1195H138.549V12.798H138.468ZM138.539 23.1463L147.931 12.4165L147.87 12.3629L138.478 23.0927L138.539 23.1463ZM147.901 12.4303H148.506V12.349H147.901V12.4303ZM148.466 12.3897V27.8789H148.547V12.3897H148.466ZM164.643 27.8789V27.9196H164.684V27.8789H164.643ZM161.954 27.8789H161.913V27.9196H161.954V27.8789ZM161.954 21.0777H161.994V21.0371H161.954V21.0777ZM155.012 21.0777V21.0371H154.971V21.0777H155.012ZM155.012 27.8789V27.9196H155.053V27.8789H155.012ZM152.322 27.8789H152.282V27.9196H152.322V27.8789ZM152.322 12.798V12.7574H152.282V12.798H152.322ZM155.012 12.798H155.053V12.7574H155.012V12.798ZM155.012 18.8529H154.971V18.8936H155.012V18.8529ZM161.954 18.8529V18.8936H161.994V18.8529H161.954ZM161.954 12.798V12.7574H161.913V12.798H161.954ZM164.643 12.798H164.684V12.7574H164.643V12.798ZM164.643 27.8382H161.954V27.9196H164.643V27.8382ZM161.994 27.8789V21.0777H161.913V27.8789H161.994ZM161.954 21.0371H155.012V21.1184H161.954V21.0371ZM154.971 21.0777V27.8789H155.053V21.0777H154.971ZM155.012 27.8382H152.322V27.9196H155.012V27.8382ZM152.363 27.8789V12.798H152.282V27.8789H152.363ZM152.322 12.8387H155.012V12.7574H152.322V12.8387ZM154.971 12.798V18.8529H155.053V12.798H154.971ZM155.012 18.8936H161.954V18.8123H155.012V18.8936ZM161.994 18.8529V12.798H161.913V18.8529H161.994ZM161.954 12.8387H164.643V12.7574H161.954V12.8387ZM164.603 12.798V27.8789H164.684V12.798H164.603ZM176.823 26.1469L176.862 26.1348L176.84 26.0625L176.792 26.1213L176.823 26.1469ZM169.529 19.7964L169.504 19.7644L169.504 19.7645L169.529 19.7964ZM176.598 18.5572L176.586 18.596L176.639 18.6125V18.5572H176.598ZM169.445 16.262L169.409 16.2804L169.434 16.3299L169.473 16.291L169.445 16.262ZM168.319 14.0372L168.292 14.0063L168.268 14.027L168.282 14.0555L168.319 14.0372ZM170.36 12.9811L170.347 12.9427L170.347 12.9427L170.36 12.9811ZM177.725 13.9527L177.697 13.9821L177.725 13.9527ZM180.428 26.8087H180.469V26.7849L180.448 26.7733L180.428 26.8087ZM180.428 28.1324V28.173H180.469V28.1324H180.428ZM177.894 27.6114L177.871 27.6451L177.871 27.6453L177.894 27.6114ZM176.598 20.4722H176.639V20.4391L176.606 20.4324L176.598 20.4722ZM176.598 24.1333L176.629 24.1595L176.639 24.1481V24.1333H176.598ZM176.792 26.1213C175.713 27.4518 174.092 28.1199 171.923 28.1199V28.2012C174.11 28.2012 175.756 27.5269 176.855 26.1725L176.792 26.1213ZM171.923 28.1199C170.742 28.1199 169.724 27.6925 168.868 26.8363L168.811 26.8938C169.682 27.7649 170.72 28.2012 171.923 28.2012V28.1199ZM168.868 26.8363C168.013 25.9806 167.585 24.9256 167.585 23.6687H167.503C167.503 24.9463 167.939 26.0222 168.811 26.8938L168.868 26.8363ZM167.585 23.6687C167.585 22.1523 168.24 20.8728 169.555 19.8282L169.504 19.7645C168.172 20.8227 167.503 22.1247 167.503 23.6687H167.585ZM169.555 19.8283C170.879 18.7837 172.578 18.2599 174.655 18.2599V18.1786C172.564 18.1786 170.846 18.7062 169.504 19.7644L169.555 19.8283ZM174.655 18.2599C175.222 18.2599 175.866 18.3716 176.586 18.596L176.61 18.5184C175.885 18.2922 175.233 18.1786 174.655 18.1786V18.2599ZM176.639 18.5572C176.639 17.3316 176.363 16.4048 175.805 15.7842C175.245 15.1628 174.409 14.8555 173.303 14.8555V14.9368C174.394 14.9368 175.205 15.2396 175.744 15.8386C176.284 16.4384 176.558 17.3421 176.558 18.5572H176.639ZM173.303 14.8555C171.653 14.8555 170.355 15.3131 169.417 16.233L169.473 16.291C170.393 15.3897 171.668 14.9368 173.303 14.9368V14.8555ZM169.481 16.2436L168.355 14.0188L168.282 14.0555L169.409 16.2804L169.481 16.2436ZM168.345 14.0681C168.79 13.6879 169.465 13.3379 170.374 13.0195L170.347 12.9427C169.434 13.2626 168.748 13.6167 168.292 14.0063L168.345 14.0681ZM170.374 13.0195C171.29 12.7016 172.172 12.543 173.022 12.543V12.4617C172.162 12.4617 171.271 12.6222 170.347 12.9427L170.374 13.0195ZM173.022 12.543C175.138 12.543 176.693 13.0254 177.697 13.9821L177.753 13.9233C176.728 12.9462 175.148 12.4617 173.022 12.4617V12.543ZM177.697 13.9821C178.699 14.9378 179.205 16.5295 179.205 18.7684H179.286C179.286 16.5202 178.778 14.9014 177.753 13.9233L177.697 13.9821ZM179.205 18.7684V24.1615H179.286V18.7684H179.205ZM179.205 24.1615C179.205 25.4923 179.602 26.3928 180.408 26.8442L180.448 26.7733C179.678 26.3423 179.286 25.478 179.286 24.1615H179.205ZM180.388 26.8087V28.1324H180.469V26.8087H180.388ZM180.428 28.0917C179.266 28.0917 178.432 27.918 177.916 27.5774L177.871 27.6453C178.407 27.9994 179.262 28.173 180.428 28.173V28.0917ZM177.916 27.5776C177.408 27.2358 177.057 26.7555 176.862 26.1348L176.785 26.1591C176.984 26.7963 177.347 27.2923 177.871 27.6451L177.916 27.5776ZM176.606 20.4324C176.127 20.3338 175.738 20.2598 175.44 20.2104C175.142 20.1611 174.931 20.1359 174.81 20.1359V20.2172C174.923 20.2172 175.128 20.2413 175.426 20.2906C175.724 20.3397 176.111 20.4136 176.59 20.5121L176.606 20.4324ZM174.81 20.1359C173.451 20.1359 172.338 20.49 171.475 21.2012L171.527 21.264C172.372 20.5672 173.465 20.2172 174.81 20.2172V20.1359ZM171.475 21.2012C170.613 21.9115 170.179 22.7437 170.179 23.6968H170.26C170.26 22.7724 170.68 21.9619 171.527 21.264L171.475 21.2012ZM170.179 23.6968C170.179 24.4935 170.413 25.0978 170.887 25.502C171.359 25.9051 172.064 26.1031 172.993 26.1031V26.0218C172.074 26.0218 171.391 25.8255 170.939 25.4401C170.489 25.0557 170.26 24.4772 170.26 23.6968H170.179ZM172.993 26.1031C174.332 26.1031 175.544 25.4521 176.629 24.1595L176.567 24.1072C175.493 25.3867 174.302 26.0218 172.993 26.0218V26.1031ZM176.639 24.1333V20.4722H176.558V24.1333H176.639Z" fill="#2B2A29"/>
<path d="M80.3146 38.7109L79.7901 35.7169L78.2907 38.7945H78.054L76.5593 35.7633L76.0486 38.7109H75.1992L76.1508 33.6512H76.3875L78.2257 37.3601L80.0408 33.6512H80.2682L81.2013 38.7109H80.3146ZM84.8266 38.14C84.4677 38.5825 83.9292 38.8038 83.2112 38.8038C82.8182 38.8038 82.4793 38.6614 82.1946 38.3767C81.9099 38.092 81.7676 37.7408 81.7676 37.323C81.7676 36.8186 81.9857 36.393 82.4221 36.0464C82.8615 35.6998 83.4248 35.5265 84.1118 35.5265C84.3006 35.5265 84.5141 35.5637 84.7524 35.6379C84.7524 34.8333 84.3903 34.431 83.6661 34.431C83.1246 34.431 82.7006 34.5811 82.3942 34.8813L82.0229 34.1479C82.1714 34.021 82.3958 33.9049 82.696 33.7997C82.9992 33.6945 83.2917 33.6419 83.5733 33.6419C84.2727 33.6419 84.7895 33.8013 85.1237 34.12C85.458 34.4388 85.6251 34.9679 85.6251 35.7076V37.4855C85.6251 37.9218 85.755 38.2127 86.015 38.3581V38.7945C85.6313 38.7945 85.3527 38.7372 85.1794 38.6227C85.0092 38.5082 84.8916 38.3473 84.8266 38.14ZM84.7524 36.2692C84.4367 36.2043 84.2402 36.1718 84.1628 36.1718C83.7172 36.1718 83.3536 36.2878 83.072 36.5199C82.7904 36.752 82.6496 37.0228 82.6496 37.3323C82.6496 37.8522 82.9544 38.1121 83.564 38.1121C84.0004 38.1121 84.3965 37.9001 84.7524 37.4762V36.2692ZM90.1557 34.4821H87.8393V38.7109H86.9527V33.7394H90.1557V34.4821ZM93.8321 38.14C93.4731 38.5825 92.9347 38.8038 92.2167 38.8038C91.8237 38.8038 91.4848 38.6614 91.2001 38.3767C90.9154 38.092 90.773 37.7408 90.773 37.323C90.773 36.8186 90.9912 36.393 91.4276 36.0464C91.867 35.6998 92.4302 35.5265 93.1172 35.5265C93.306 35.5265 93.5196 35.5637 93.7578 35.6379C93.7578 34.8333 93.3958 34.431 92.6716 34.431C92.1301 34.431 91.7061 34.5811 91.3997 34.8813L91.0284 34.1479C91.1769 34.021 91.4013 33.9049 91.7014 33.7997C92.0047 33.6945 92.2972 33.6419 92.5788 33.6419C93.2782 33.6419 93.795 33.8013 94.1292 34.12C94.4634 34.4388 94.6305 34.9679 94.6305 35.7076V37.4855C94.6305 37.9218 94.7605 38.2127 95.0205 38.3581V38.7945C94.6367 38.7945 94.3582 38.7372 94.1849 38.6227C94.0147 38.5082 93.8971 38.3473 93.8321 38.14ZM93.7578 36.2692C93.4422 36.2043 93.2457 36.1718 93.1683 36.1718C92.7227 36.1718 92.3591 36.2878 92.0774 36.5199C91.7958 36.752 91.655 37.0228 91.655 37.3323C91.655 37.8522 91.9598 38.1121 92.5695 38.1121C93.0058 38.1121 93.402 37.9001 93.7578 37.4762V36.2692ZM98.4045 36.1161C99.0234 36.342 99.3329 36.7474 99.3329 37.3323C99.3329 37.7934 99.158 38.1539 98.8083 38.4138C98.4617 38.6738 97.9898 38.8038 97.3925 38.8038C96.7334 38.8038 96.1253 38.6181 95.5682 38.2467L96.0139 37.5412C96.4069 37.9032 96.8804 38.0843 97.4343 38.0843C97.7345 38.0843 97.9728 38.0162 98.1492 37.88C98.3256 37.7408 98.4138 37.5582 98.4138 37.3323C98.4138 36.7381 98.0424 36.441 97.2997 36.441C97.0893 36.441 96.9051 36.4503 96.7473 36.4689V35.7633C96.803 35.7695 96.9964 35.7726 97.3275 35.7726C97.6308 35.7726 97.866 35.7138 98.0331 35.5962C98.2033 35.4755 98.2884 35.3099 98.2884 35.0995C98.2884 34.8674 98.2111 34.6879 98.0563 34.561C97.9047 34.431 97.6912 34.366 97.4157 34.366C96.998 34.366 96.5632 34.4929 96.1113 34.7467L95.7864 34.0318C96.3558 33.7719 96.9144 33.6419 97.4622 33.6419C97.9511 33.6419 98.3612 33.7719 98.6923 34.0318C99.0234 34.2887 99.189 34.6322 99.189 35.0623C99.189 35.5729 98.9275 35.9242 98.4045 36.1161ZM104.458 38.7109H103.576V35.3084L100.475 38.8456H100.275V33.7394H101.162V37.1419L104.258 33.6047H104.458V38.7109ZM109.777 38.7109H108.891V36.4689H106.602V38.7109H105.716V33.7394H106.602V35.7354H108.891V33.7394H109.777V38.7109ZM117.841 38.7109H116.959V34.4821H114.791V38.7109H113.904V33.7394H117.841V38.7109ZM121.025 33.6419C121.737 33.6419 122.288 33.8724 122.677 34.3335C123.07 34.7915 123.267 35.4167 123.267 36.2089C123.267 37.0228 123.063 37.6588 122.654 38.1168C122.246 38.5748 121.703 38.8038 121.025 38.8038C120.316 38.8038 119.764 38.5717 119.368 38.1075C118.972 37.6433 118.774 37.0104 118.774 36.2089C118.774 35.4445 118.981 34.8256 119.396 34.3521C119.81 33.8786 120.353 33.6419 121.025 33.6419ZM121.025 38.0843C121.44 38.0843 121.761 37.9125 121.99 37.569C122.223 37.2255 122.339 36.7721 122.339 36.2089C122.339 34.9803 121.901 34.366 121.025 34.366C120.61 34.366 120.284 34.5331 120.045 34.8674C119.81 35.2016 119.693 35.6488 119.693 36.2089C119.693 37.4591 120.137 38.0843 121.025 38.0843ZM128.327 38.7109H127.445V34.4403H126.113C126.097 35.1397 126.026 35.7865 125.899 36.3807C125.772 36.9717 125.6 37.4607 125.384 37.8475C125.167 38.2313 124.932 38.4804 124.678 38.5949C124.424 38.7094 124.12 38.7666 123.764 38.7666V37.9589C124.318 37.9589 124.709 37.5303 124.938 36.6731C125.17 35.8128 125.286 34.9896 125.286 34.2036V33.7394H128.327V38.7109ZM133.739 36.3157H130.156C130.156 36.6808 130.218 36.9903 130.341 37.2441C130.465 37.4978 130.643 37.699 130.875 37.8475C131.11 37.993 131.394 38.0657 131.725 38.0657C132.223 38.0657 132.644 37.9156 132.987 37.6154L133.349 38.3303C133.117 38.5129 132.862 38.6382 132.583 38.7063C132.305 38.7713 131.961 38.8038 131.553 38.8038C130.878 38.8038 130.323 38.5732 129.886 38.1121C129.453 37.6479 129.237 37.0398 129.237 36.2878C129.237 35.4987 129.464 34.8612 129.919 34.3753C130.377 33.8864 130.925 33.6419 131.562 33.6419C132.249 33.6419 132.797 33.8353 133.206 34.2221C133.614 34.6059 133.818 35.1227 133.818 35.7726C133.818 35.9025 133.792 36.0836 133.739 36.3157ZM131.599 34.3846C131.213 34.3846 130.886 34.5115 130.62 34.7652C130.357 35.0159 130.211 35.3176 130.184 35.6704H132.932C132.932 35.2929 132.811 34.985 132.57 34.7467C132.328 34.5053 132.005 34.3846 131.599 34.3846ZM137.202 36.1161C137.821 36.342 138.131 36.7474 138.131 37.3323C138.131 37.7934 137.956 38.1539 137.606 38.4138C137.26 38.6738 136.788 38.8038 136.19 38.8038C135.531 38.8038 134.923 38.6181 134.366 38.2467L134.812 37.5412C135.205 37.9032 135.678 38.0843 136.232 38.0843C136.532 38.0843 136.771 38.0162 136.947 37.88C137.123 37.7408 137.212 37.5582 137.212 37.3323C137.212 36.7381 136.84 36.441 136.097 36.441C135.887 36.441 135.703 36.4503 135.545 36.4689V35.7633C135.601 35.7695 135.794 35.7726 136.125 35.7726C136.429 35.7726 136.664 35.7138 136.831 35.5962C137.001 35.4755 137.086 35.3099 137.086 35.0995C137.086 34.8674 137.009 34.6879 136.854 34.561C136.702 34.431 136.489 34.366 136.214 34.366C135.796 34.366 135.361 34.4929 134.909 34.7467L134.584 34.0318C135.154 33.7719 135.712 33.6419 136.26 33.6419C136.749 33.6419 137.159 33.7719 137.49 34.0318C137.821 34.2887 137.987 34.6322 137.987 35.0623C137.987 35.5729 137.725 35.9242 137.202 36.1161ZM143.135 38.7109H142.248V36.4689H139.96V38.7109H139.073V33.7394H139.96V35.7354H142.248V33.7394H143.135V38.7109ZM149.652 38.7109H148.784V33.7394H149.652V38.7109ZM145.261 35.5637C145.515 35.5265 145.796 35.508 146.106 35.508C146.743 35.508 147.229 35.6457 147.563 35.9211C147.897 36.1965 148.065 36.6035 148.065 37.1419C148.065 37.4112 147.989 37.6742 147.837 37.9311C147.685 38.1848 147.464 38.3783 147.173 38.5113C146.882 38.6444 146.52 38.7109 146.087 38.7109H144.393V33.7394H145.261V35.5637ZM145.261 37.9961C145.471 38.0177 145.753 38.0286 146.106 38.0286C146.434 38.0286 146.695 37.9497 146.89 37.7918C147.088 37.634 147.187 37.4112 147.187 37.1234C147.187 36.8108 147.084 36.5772 146.876 36.4224C146.672 36.2677 146.4 36.1903 146.059 36.1903C145.874 36.1903 145.607 36.2104 145.261 36.2507V37.9961ZM155.028 38.7109H153.932L152.66 36.8077L151.425 38.7109H150.376L152.224 36.1625L150.529 33.7394H151.565L152.679 35.4894L153.858 33.7394H154.856L153.106 36.1253L155.028 38.7109ZM160.538 39.5279C160.423 39.8405 160.183 40.102 159.818 40.3124C159.453 40.526 159.043 40.6327 158.588 40.6327V39.8436C158.95 39.8436 159.264 39.7569 159.53 39.5836C159.796 39.4134 159.929 39.2045 159.929 38.957C159.929 38.663 159.882 38.3937 159.786 38.1493L158.063 33.7115H158.969L160.422 37.5504L161.745 33.7115H162.636L160.538 39.5279ZM167.097 34.1479L166.67 34.7652C166.561 34.6693 166.397 34.5827 166.178 34.5053C165.961 34.4248 165.741 34.3846 165.518 34.3846C165.036 34.3846 164.653 34.5548 164.372 34.8952C164.09 35.2356 163.949 35.6967 163.949 36.2785C163.949 36.8418 164.09 37.2812 164.372 37.5969C164.653 37.9094 165.057 38.0657 165.583 38.0657C165.98 38.0657 166.38 37.9094 166.786 37.5969L167.125 38.3396C166.663 38.649 166.077 38.8038 165.365 38.8038C164.691 38.8038 164.132 38.5763 163.689 38.1214C163.25 37.6634 163.03 37.0491 163.03 36.2785C163.03 35.4646 163.262 34.8225 163.727 34.3521C164.194 33.8786 164.821 33.6419 165.607 33.6419C165.876 33.6419 166.159 33.6976 166.456 33.809C166.753 33.9204 166.967 34.0334 167.097 34.1479ZM172.194 38.7109H171.312V34.4403H169.979C169.964 35.1397 169.893 35.7865 169.766 36.3807C169.639 36.9717 169.467 37.4607 169.251 37.8475C169.034 38.2313 168.799 38.4804 168.545 38.5949C168.291 38.7094 167.986 38.7666 167.631 38.7666V37.9589C168.184 37.9589 168.576 37.5303 168.805 36.6731C169.037 35.8128 169.153 34.9896 169.153 34.2036V33.7394H172.194V38.7109ZM175.346 39.5279C175.231 39.8405 174.991 40.102 174.626 40.3124C174.261 40.526 173.851 40.6327 173.396 40.6327V39.8436C173.758 39.8436 174.072 39.7569 174.338 39.5836C174.604 39.4134 174.737 39.2045 174.737 38.957C174.737 38.663 174.689 38.3937 174.594 38.1493L172.871 33.7115H173.777L175.229 37.5504L176.552 33.7115H177.444L175.346 39.5279ZM181.352 34.4821H179.036V38.7109H178.149V33.7394H181.352V34.4821Z" fill="#FEFEFE"/>
<path d="M80.3146 38.7109L80.2746 38.718L80.2805 38.7516H80.3146V38.7109ZM79.7901 35.7169L79.8301 35.7098L79.8085 35.5863L79.7535 35.699L79.7901 35.7169ZM78.2907 38.7945V38.8352H78.3161L78.3273 38.8123L78.2907 38.7945ZM78.054 38.7945L78.0175 38.8125L78.0287 38.8352H78.054V38.7945ZM76.5593 35.7633L76.5957 35.7453L76.5405 35.6333L76.5192 35.7563L76.5593 35.7633ZM76.0486 38.7109V38.7516H76.0829L76.0887 38.7179L76.0486 38.7109ZM75.1992 38.7109L75.1592 38.7034L75.1501 38.7516H75.1992V38.7109ZM76.1508 33.6512V33.6105H76.117L76.1108 33.6436L76.1508 33.6512ZM76.3875 33.6512L76.4239 33.6331L76.4127 33.6105H76.3875V33.6512ZM78.2257 37.3601L78.1893 37.3782L78.226 37.4521L78.2623 37.378L78.2257 37.3601ZM80.0408 33.6512V33.6105H80.0154L80.0042 33.6333L80.0408 33.6512ZM80.2682 33.6512L80.3082 33.6438L80.3021 33.6105H80.2682V33.6512ZM81.2013 38.7109V38.7516H81.2501L81.2412 38.7036L81.2013 38.7109ZM80.3547 38.7039L79.8301 35.7098L79.75 35.7239L80.2746 38.718L80.3547 38.7039ZM79.7535 35.699L78.2542 38.7767L78.3273 38.8123L79.8266 35.7347L79.7535 35.699ZM78.2907 38.7538H78.054V38.8352H78.2907V38.7538ZM78.0904 38.7765L76.5957 35.7453L76.5228 35.7813L78.0175 38.8125L78.0904 38.7765ZM76.5192 35.7563L76.0086 38.704L76.0887 38.7179L76.5993 35.7702L76.5192 35.7563ZM76.0486 38.6703H75.1992V38.7516H76.0486V38.6703ZM75.2391 38.7185L76.1907 33.6587L76.1108 33.6436L75.1592 38.7034L75.2391 38.7185ZM76.1508 33.6918H76.3875V33.6105H76.1508V33.6918ZM76.3511 33.6692L78.1893 37.3782L78.2622 37.3421L76.4239 33.6331L76.3511 33.6692ZM78.2623 37.378L80.0773 33.669L80.0042 33.6333L78.1892 37.3422L78.2623 37.378ZM80.0408 33.6918H80.2682V33.6105H80.0408V33.6918ZM80.2282 33.6585L81.1613 38.7183L81.2412 38.7036L80.3082 33.6438L80.2282 33.6585ZM81.2013 38.6703H80.3146V38.7516H81.2013V38.6703ZM84.8266 38.14L84.8654 38.1278L84.8428 38.0555L84.7951 38.1144L84.8266 38.14ZM82.4221 36.0464L82.3969 36.0145L82.3968 36.0146L82.4221 36.0464ZM84.7524 35.6379L84.7403 35.6768L84.793 35.6932V35.6379H84.7524ZM82.3942 34.8813L82.358 34.8997L82.383 34.9492L82.4227 34.9103L82.3942 34.8813ZM82.0229 34.1479L81.9965 34.1169L81.9722 34.1377L81.9866 34.1662L82.0229 34.1479ZM82.696 33.7997L82.6826 33.7613L82.6825 33.7613L82.696 33.7997ZM85.1237 34.12L85.0957 34.1494L85.1237 34.12ZM86.015 38.3581H86.0557V38.3343L86.0349 38.3227L86.015 38.3581ZM86.015 38.7945V38.8352H86.0557V38.7945H86.015ZM85.1794 38.6227L85.1567 38.6565L85.157 38.6567L85.1794 38.6227ZM84.7524 36.2692H84.793V36.2361L84.7606 36.2294L84.7524 36.2692ZM84.7524 37.4762L84.7835 37.5023L84.793 37.491V37.4762H84.7524ZM84.7951 38.1144C84.4458 38.545 83.9204 38.7631 83.2112 38.7631V38.8444C83.938 38.8444 84.4896 38.62 84.8582 38.1656L84.7951 38.1144ZM83.2112 38.7631C82.8293 38.7631 82.5007 38.6253 82.2234 38.348L82.1659 38.4055C82.458 38.6976 82.8071 38.8444 83.2112 38.8444V38.7631ZM82.2234 38.348C81.9466 38.0712 81.8082 37.7304 81.8082 37.323H81.7269C81.7269 37.7511 81.8732 38.1128 82.1659 38.4055L82.2234 38.348ZM81.8082 37.323C81.8082 36.8324 82.0196 36.4181 82.4474 36.0783L82.3968 36.0146C81.9519 36.368 81.7269 36.8047 81.7269 37.323H81.8082ZM82.4473 36.0784C82.878 35.7386 83.4318 35.5672 84.1118 35.5672V35.4859C83.4178 35.4859 82.845 35.6611 82.3969 36.0145L82.4473 36.0784ZM84.1118 35.5672C84.2954 35.5672 84.5047 35.6033 84.7403 35.6768L84.7645 35.5991C84.5235 35.524 84.3057 35.4859 84.1118 35.4859V35.5672ZM84.793 35.6379C84.793 35.2304 84.7014 34.9171 84.511 34.7055C84.3199 34.4932 84.0357 34.3904 83.6661 34.3904V34.4717C84.0208 34.4717 84.2796 34.57 84.4506 34.7599C84.6223 34.9507 84.7117 35.2409 84.7117 35.6379H84.793ZM83.6661 34.3904C83.1169 34.3904 82.6816 34.5428 82.3658 34.8523L82.4227 34.9103C82.7196 34.6194 83.1323 34.4717 83.6661 34.4717V34.3904ZM82.4305 34.8629L82.0592 34.1295L81.9866 34.1662L82.358 34.8997L82.4305 34.8629ZM82.0493 34.1788C82.1924 34.0566 82.4114 33.9425 82.7094 33.8381L82.6825 33.7613C82.3802 33.8673 82.1505 33.9854 81.9965 34.1169L82.0493 34.1788ZM82.7093 33.8381C83.0089 33.7342 83.2968 33.6825 83.5733 33.6825V33.6012C83.2866 33.6012 82.9896 33.6548 82.6826 33.7613L82.7093 33.8381ZM83.5733 33.6825C84.2675 33.6825 84.7721 33.8408 85.0957 34.1494L85.1518 34.0906C84.8069 33.7617 84.2779 33.6012 83.5733 33.6012V33.6825ZM85.0957 34.1494C85.4181 34.457 85.5844 34.9726 85.5844 35.7076H85.6657C85.6657 34.9633 85.4978 34.4206 85.1518 34.0906L85.0957 34.1494ZM85.5844 35.7076V37.4855H85.6657V35.7076H85.5844ZM85.5844 37.4855C85.5844 37.929 85.7169 38.2379 85.9951 38.3936L86.0349 38.3227C85.7932 38.1875 85.6657 37.9146 85.6657 37.4855H85.5844ZM85.9743 38.3581V38.7945H86.0557V38.3581H85.9743ZM86.015 38.7538C85.6334 38.7538 85.3649 38.6966 85.2019 38.5888L85.157 38.6567C85.3406 38.7779 85.6291 38.8352 86.015 38.8352V38.7538ZM85.2021 38.589C85.0401 38.48 84.9278 38.3269 84.8654 38.1278L84.7879 38.1521C84.8554 38.3677 84.9784 38.5365 85.1567 38.6565L85.2021 38.589ZM84.7606 36.2294C84.6025 36.1969 84.4739 36.1724 84.3749 36.156C84.2768 36.1398 84.2053 36.1311 84.1628 36.1311V36.2124C84.1978 36.2124 84.2632 36.22 84.3616 36.2363C84.4591 36.2524 84.5866 36.2766 84.7442 36.3091L84.7606 36.2294ZM84.1628 36.1311C83.7099 36.1311 83.3365 36.2492 83.0461 36.4885L83.0978 36.5513C83.3707 36.3264 83.7245 36.2124 84.1628 36.2124V36.1311ZM83.0461 36.4885C82.757 36.7268 82.6089 37.0084 82.6089 37.3323H82.6902C82.6902 37.0372 82.8237 36.7772 83.0978 36.5513L83.0461 36.4885ZM82.6089 37.3323C82.6089 37.6003 82.6878 37.8082 82.8518 37.9481C83.0146 38.0869 83.2544 38.1528 83.564 38.1528V38.0715C83.264 38.0715 83.0466 38.0074 82.9046 37.8862C82.7637 37.7661 82.6902 37.5841 82.6902 37.3323H82.6089ZM83.564 38.1528C84.0155 38.1528 84.4222 37.9328 84.7835 37.5023L84.7212 37.45C84.3708 37.8675 83.9853 38.0715 83.564 38.0715V38.1528ZM84.793 37.4762V36.2692H84.7117V37.4762H84.793ZM90.1557 34.4821V34.5227H90.1963V34.4821H90.1557ZM87.8393 34.4821V34.4414H87.7986V34.4821H87.8393ZM87.8393 38.7109V38.7516H87.88V38.7109H87.8393ZM86.9527 38.7109H86.912V38.7516H86.9527V38.7109ZM86.9527 33.7394V33.6987H86.912V33.7394H86.9527ZM90.1557 33.7394H90.1963V33.6987H90.1557V33.7394ZM90.1557 34.4414H87.8393V34.5227H90.1557V34.4414ZM87.7986 34.4821V38.7109H87.88V34.4821H87.7986ZM87.8393 38.6703H86.9527V38.7516H87.8393V38.6703ZM86.9933 38.7109V33.7394H86.912V38.7109H86.9933ZM86.9527 33.78H90.1557V33.6987H86.9527V33.78ZM90.115 33.7394V34.4821H90.1963V33.7394H90.115ZM93.8321 38.14L93.8709 38.1278L93.8483 38.0555L93.8005 38.1144L93.8321 38.14ZM91.4276 36.0464L91.4024 36.0145L91.4023 36.0146L91.4276 36.0464ZM93.7578 35.6379L93.7457 35.6768L93.7985 35.6932V35.6379H93.7578ZM91.3997 34.8813L91.3634 34.8997L91.3885 34.9492L91.4282 34.9103L91.3997 34.8813ZM91.0284 34.1479L91.0019 34.1169L90.9776 34.1377L90.9921 34.1662L91.0284 34.1479ZM91.7014 33.7997L91.6881 33.7613L91.688 33.7613L91.7014 33.7997ZM94.1292 34.12L94.1011 34.1494L94.1292 34.12ZM95.0205 38.3581H95.0611V38.3343L95.0403 38.3227L95.0205 38.3581ZM95.0205 38.7945V38.8352H95.0611V38.7945H95.0205ZM94.1849 38.6227L94.1622 38.6565L94.1625 38.6567L94.1849 38.6227ZM93.7578 36.2692H93.7985V36.2361L93.766 36.2294L93.7578 36.2692ZM93.7578 37.4762L93.789 37.5023L93.7985 37.491V37.4762H93.7578ZM93.8005 38.1144C93.4512 38.545 92.9259 38.7631 92.2167 38.7631V38.8444C92.9434 38.8444 93.495 38.62 93.8637 38.1656L93.8005 38.1144ZM92.2167 38.7631C91.8348 38.7631 91.5061 38.6253 91.2289 38.348L91.1714 38.4055C91.4635 38.6976 91.8126 38.8444 92.2167 38.8444V38.7631ZM91.2289 38.348C90.9521 38.0712 90.8137 37.7304 90.8137 37.323H90.7324C90.7324 37.7511 90.8787 38.1128 91.1714 38.4055L91.2289 38.348ZM90.8137 37.323C90.8137 36.8324 91.0251 36.4181 91.4529 36.0783L91.4023 36.0146C90.9574 36.368 90.7324 36.8047 90.7324 37.323H90.8137ZM91.4527 36.0784C91.8835 35.7386 92.4372 35.5672 93.1173 35.5672V35.4859C92.4232 35.4859 91.8505 35.6611 91.4024 36.0145L91.4527 36.0784ZM93.1173 35.5672C93.3008 35.5672 93.5102 35.6033 93.7457 35.6768L93.7699 35.5991C93.5289 35.524 93.3112 35.4859 93.1173 35.4859V35.5672ZM93.7985 35.6379C93.7985 35.2304 93.7069 34.9171 93.5165 34.7055C93.3254 34.4932 93.0411 34.3904 92.6716 34.3904V34.4717C93.0263 34.4717 93.2851 34.57 93.4561 34.7599C93.6278 34.9507 93.7172 35.2409 93.7172 35.6379H93.7985ZM92.6716 34.3904C92.1223 34.3904 91.6871 34.5428 91.3713 34.8523L91.4282 34.9103C91.7251 34.6194 92.1378 34.4717 92.6716 34.4717V34.3904ZM91.436 34.8629L91.0646 34.1295L90.9921 34.1662L91.3634 34.8997L91.436 34.8629ZM91.0548 34.1788C91.1978 34.0566 91.4168 33.9425 91.7149 33.8381L91.688 33.7613C91.3857 33.8673 91.156 33.9854 91.0019 34.1169L91.0548 34.1788ZM91.7148 33.8381C92.0144 33.7342 92.3023 33.6825 92.5788 33.6825V33.6012C92.292 33.6012 91.9951 33.6548 91.6881 33.7613L91.7148 33.8381ZM92.5788 33.6825C93.273 33.6825 93.7776 33.8408 94.1011 34.1494L94.1573 34.0906C93.8124 33.7617 93.2834 33.6012 92.5788 33.6012V33.6825ZM94.1011 34.1494C94.4236 34.457 94.5899 34.9726 94.5899 35.7076H94.6712C94.6712 34.9633 94.5033 34.4206 94.1573 34.0906L94.1011 34.1494ZM94.5899 35.7076V37.4855H94.6712V35.7076H94.5899ZM94.5899 37.4855C94.5899 37.929 94.7224 38.2379 95.0006 38.3936L95.0403 38.3227C94.7987 38.1875 94.6712 37.9146 94.6712 37.4855H94.5899ZM94.9798 38.3581V38.7945H95.0611V38.3581H94.9798ZM95.0205 38.7538C94.6389 38.7538 94.3704 38.6966 94.2073 38.5888L94.1625 38.6567C94.346 38.7779 94.6346 38.8352 95.0205 38.8352V38.7538ZM94.2076 38.589C94.0455 38.48 93.9333 38.3269 93.8709 38.1278L93.7933 38.1521C93.8609 38.3677 93.9839 38.5365 94.1622 38.6565L94.2076 38.589ZM93.766 36.2294C93.608 36.1969 93.4794 36.1724 93.3804 36.156C93.2823 36.1398 93.2108 36.1311 93.1683 36.1311V36.2124C93.2032 36.2124 93.2687 36.22 93.3671 36.2363C93.4646 36.2524 93.5921 36.2766 93.7496 36.3091L93.766 36.2294ZM93.1683 36.1311C92.7154 36.1311 92.342 36.2492 92.0516 36.4885L92.1033 36.5513C92.3761 36.3264 92.73 36.2124 93.1683 36.2124V36.1311ZM92.0516 36.4885C91.7625 36.7268 91.6144 37.0084 91.6144 37.3323H91.6957C91.6957 37.0372 91.8292 36.7772 92.1033 36.5513L92.0516 36.4885ZM91.6144 37.3323C91.6144 37.6003 91.6933 37.8082 91.8573 37.9481C92.02 38.0869 92.2598 38.1528 92.5695 38.1528V38.0715C92.2695 38.0715 92.0521 38.0074 91.91 37.8862C91.7692 37.7661 91.6957 37.5841 91.6957 37.3323H91.6144ZM92.5695 38.1528C93.021 38.1528 93.4276 37.9328 93.789 37.5023L93.7267 37.45C93.3763 37.8675 92.9907 38.0715 92.5695 38.0715V38.1528ZM93.7985 37.4762V36.2692H93.7172V37.4762H93.7985ZM98.4045 36.1161L98.3905 36.0779L98.2862 36.1162L98.3905 36.1543L98.4045 36.1161ZM98.8083 38.4138L98.7841 38.3812L98.7839 38.3813L98.8083 38.4138ZM95.5682 38.2467L95.5338 38.225L95.5127 38.2586L95.5457 38.2806L95.5682 38.2467ZM96.0139 37.5412L96.0414 37.5113L96.0055 37.4782L95.9795 37.5194L96.0139 37.5412ZM98.1492 37.88L98.174 37.9122L98.1744 37.9119L98.1492 37.88ZM96.7473 36.4689H96.7066V36.5146L96.752 36.5092L96.7473 36.4689ZM96.7473 35.7633L96.7518 35.7229L96.7066 35.7178V35.7633H96.7473ZM98.0331 35.5962L98.0565 35.6294L98.0566 35.6293L98.0331 35.5962ZM98.0563 34.561L98.0299 34.5919L98.0306 34.5924L98.0563 34.561ZM96.1113 34.7467L96.0743 34.7635L96.0926 34.8038L96.1312 34.7821L96.1113 34.7467ZM95.7864 34.0318L95.7695 33.9948L95.7326 34.0117L95.7494 34.0486L95.7864 34.0318ZM98.6923 34.0318L98.6672 34.0638L98.6674 34.0639L98.6923 34.0318ZM98.3905 36.1543C98.6948 36.2653 98.9196 36.4192 99.0685 36.6142C99.217 36.8088 99.2922 37.0474 99.2922 37.3323H99.3735C99.3735 37.0323 99.294 36.7757 99.1331 36.5649C98.9725 36.3544 98.7331 36.1927 98.4184 36.0779L98.3905 36.1543ZM99.2922 37.3323C99.2922 37.7814 99.1228 38.1294 98.7841 38.3812L98.8326 38.4465C99.1933 38.1783 99.3735 37.8054 99.3735 37.3323H99.2922ZM98.7839 38.3813C98.4466 38.6343 97.9843 38.7631 97.3925 38.7631V38.8444C97.9953 38.8444 98.4769 38.7133 98.8327 38.4464L98.7839 38.3813ZM97.3925 38.7631C96.7415 38.7631 96.1412 38.5799 95.5908 38.2129L95.5457 38.2806C96.1093 38.6563 96.7252 38.8444 97.3925 38.8444V38.7631ZM95.6026 38.2684L96.0482 37.5629L95.9795 37.5194L95.5338 38.225L95.6026 38.2684ZM95.9863 37.5711C96.3871 37.9403 96.8706 38.1249 97.4343 38.1249V38.0436C96.8902 38.0436 96.4266 37.8661 96.0414 37.5113L95.9863 37.5711ZM97.4343 38.1249C97.7404 38.1249 97.9884 38.0555 98.174 37.9122L98.1243 37.8478C97.9572 37.9769 97.7286 38.0436 97.4343 38.0436V38.1249ZM98.1744 37.9119C98.3606 37.7649 98.4544 37.5705 98.4544 37.3323H98.3731C98.3731 37.5458 98.2905 37.7166 98.124 37.8481L98.1744 37.9119ZM98.4544 37.3323C98.4544 37.0262 98.3583 36.7902 98.1606 36.6321C97.9647 36.4753 97.6754 36.4003 97.2997 36.4003V36.4817C97.6667 36.4817 97.9344 36.5552 98.1098 36.6956C98.2835 36.8345 98.3731 37.0442 98.3731 37.3323H98.4544ZM97.2997 36.4003C97.0881 36.4003 96.9024 36.4097 96.7425 36.4285L96.752 36.5092C96.9079 36.4909 97.0904 36.4817 97.2997 36.4817V36.4003ZM96.7879 36.4689V35.7633H96.7066V36.4689H96.7879ZM96.7428 35.8037C96.8014 35.8102 96.9978 35.8132 97.3275 35.8132V35.7319C96.995 35.7319 96.8046 35.7287 96.7518 35.7229L96.7428 35.8037ZM97.3275 35.8132C97.6353 35.8132 97.88 35.7536 98.0565 35.6294L98.0097 35.5629C97.852 35.6739 97.6263 35.7319 97.3275 35.7319V35.8132ZM98.0566 35.6293C98.2377 35.5009 98.3291 35.3229 98.3291 35.0995H98.2478C98.2478 35.2969 98.169 35.45 98.0096 35.563L98.0566 35.6293ZM98.3291 35.0995C98.3291 34.8574 98.2478 34.6654 98.0821 34.5296L98.0306 34.5924C98.1743 34.7103 98.2478 34.8774 98.2478 35.0995H98.3291ZM98.0828 34.5301C97.9214 34.3918 97.6972 34.3254 97.4157 34.3254V34.4067C97.6851 34.4067 97.888 34.4702 98.0299 34.5919L98.0828 34.5301ZM97.4157 34.3254C96.9895 34.3254 96.5479 34.4549 96.0914 34.7112L96.1312 34.7821C96.5784 34.531 97.0064 34.4067 97.4157 34.4067V34.3254ZM96.1484 34.7298L95.8234 34.015L95.7494 34.0486L96.0743 34.7635L96.1484 34.7298ZM95.8033 34.0688C96.3682 33.8109 96.921 33.6825 97.4622 33.6825V33.6012C96.9078 33.6012 96.3435 33.7328 95.7695 33.9948L95.8033 34.0688ZM97.4622 33.6825C97.9435 33.6825 98.3443 33.8103 98.6672 34.0638L98.7174 33.9998C98.378 33.7334 97.9587 33.6012 97.4622 33.6012V33.6825ZM98.6674 34.0639C98.9883 34.3129 99.1483 34.6443 99.1483 35.0623H99.2296C99.2296 34.62 99.0586 34.2645 98.7172 33.9997L98.6674 34.0639ZM99.1483 35.0623C99.1483 35.3104 99.0849 35.517 98.9602 35.6844C98.8353 35.8522 98.6466 35.9839 98.3905 36.0779L98.4185 36.1542C98.6854 36.0563 98.8889 35.9165 99.0255 35.733C99.1623 35.5492 99.2296 35.3249 99.2296 35.0623H99.1483ZM104.458 38.7109V38.7516H104.498V38.7109H104.458ZM103.576 38.7109H103.535V38.7516H103.576V38.7109ZM103.576 35.3084H103.616V35.2003L103.545 35.2816L103.576 35.3084ZM100.475 38.8456V38.8862H100.493L100.505 38.8724L100.475 38.8456ZM100.275 38.8456H100.235V38.8862H100.275V38.8456ZM100.275 33.7394V33.6987H100.235V33.7394H100.275ZM101.162 33.7394H101.202V33.6987H101.162V33.7394ZM101.162 37.1419H101.121V37.2501L101.192 37.1687L101.162 37.1419ZM104.258 33.6047V33.5641H104.24L104.227 33.578L104.258 33.6047ZM104.458 33.6047H104.498V33.5641H104.458V33.6047ZM104.458 38.6703H103.576V38.7516H104.458V38.6703ZM103.616 38.7109V35.3084H103.535V38.7109H103.616ZM103.545 35.2816L100.444 38.8188L100.505 38.8724L103.606 35.3352L103.545 35.2816ZM100.475 38.8049H100.275V38.8862H100.475V38.8049ZM100.316 38.8456V33.7394H100.235V38.8456H100.316ZM100.275 33.78H101.162V33.6987H100.275V33.78ZM101.121 33.7394V37.1419H101.202V33.7394H101.121ZM101.192 37.1687L104.289 33.6315L104.227 33.578L101.131 37.1152L101.192 37.1687ZM104.258 33.6454H104.458V33.5641H104.258V33.6454ZM104.417 33.6047V38.7109H104.498V33.6047H104.417ZM109.777 38.7109V38.7516H109.818V38.7109H109.777ZM108.891 38.7109H108.85V38.7516H108.891V38.7109ZM108.891 36.4689H108.931V36.4282H108.891V36.4689ZM106.602 36.4689V36.4282H106.562V36.4689H106.602ZM106.602 38.7109V38.7516H106.643V38.7109H106.602ZM105.716 38.7109H105.675V38.7516H105.716V38.7109ZM105.716 33.7394V33.6987H105.675V33.7394H105.716ZM106.602 33.7394H106.643V33.6987H106.602V33.7394ZM106.602 35.7354H106.562V35.7761H106.602V35.7354ZM108.891 35.7354V35.7761H108.931V35.7354H108.891ZM108.891 33.7394V33.6987H108.85V33.7394H108.891ZM109.777 33.7394H109.818V33.6987H109.777V33.7394ZM109.777 38.6703H108.891V38.7516H109.777V38.6703ZM108.931 38.7109V36.4689H108.85V38.7109H108.931ZM108.891 36.4282H106.602V36.5095H108.891V36.4282ZM106.562 36.4689V38.7109H106.643V36.4689H106.562ZM106.602 38.6703H105.716V38.7516H106.602V38.6703ZM105.756 38.7109V33.7394H105.675V38.7109H105.756ZM105.716 33.78H106.602V33.6987H105.716V33.78ZM106.562 33.7394V35.7354H106.643V33.7394H106.562ZM106.602 35.7761H108.891V35.6948H106.602V35.7761ZM108.931 35.7354V33.7394H108.85V35.7354H108.931ZM108.891 33.78H109.777V33.6987H108.891V33.78ZM109.737 33.7394V38.7109H109.818V33.7394H109.737ZM117.841 38.7109V38.7516H117.881V38.7109H117.841ZM116.959 38.7109H116.918V38.7516H116.959V38.7109ZM116.959 34.4821H116.999V34.4414H116.959V34.4821ZM114.791 34.4821V34.4414H114.75V34.4821H114.791ZM114.791 38.7109V38.7516H114.831V38.7109H114.791ZM113.904 38.7109H113.863V38.7516H113.904V38.7109ZM113.904 33.7394V33.6987H113.863V33.7394H113.904ZM117.841 33.7394H117.881V33.6987H117.841V33.7394ZM117.841 38.6703H116.959V38.7516H117.841V38.6703ZM116.999 38.7109V34.4821H116.918V38.7109H116.999ZM116.959 34.4414H114.791V34.5227H116.959V34.4414ZM114.75 34.4821V38.7109H114.831V34.4821H114.75ZM114.791 38.6703H113.904V38.7516H114.791V38.6703ZM113.945 38.7109V33.7394H113.863V38.7109H113.945ZM113.904 33.78H117.841V33.6987H113.904V33.78ZM117.8 33.7394V38.7109H117.881V33.7394H117.8ZM122.677 34.3335L122.646 34.3598L122.647 34.36L122.677 34.3335ZM122.654 38.1168L122.685 38.1438L122.654 38.1168ZM121.99 37.569L121.957 37.5462L121.957 37.5465L121.99 37.569ZM120.045 34.8674L120.012 34.8438L120.012 34.844L120.045 34.8674ZM121.025 33.6825C121.727 33.6825 122.266 33.9095 122.646 34.3598L122.709 34.3073C122.309 33.8354 121.746 33.6012 121.025 33.6012V33.6825ZM122.647 34.36C123.032 34.8086 123.226 35.4233 123.226 36.2089H123.308C123.308 35.41 123.109 34.7745 122.708 34.3071L122.647 34.36ZM123.226 36.2089C123.226 37.0161 123.024 37.6413 122.624 38.0897L122.685 38.1438C123.102 37.6762 123.308 37.0295 123.308 36.2089H123.226ZM122.624 38.0897C122.224 38.5381 121.692 38.7631 121.025 38.7631V38.8444C121.713 38.8444 122.268 38.6114 122.685 38.1438L122.624 38.0897ZM121.025 38.7631C120.326 38.7631 119.786 38.5347 119.399 38.0811L119.337 38.1339C119.742 38.6086 120.306 38.8444 121.025 38.8444V38.7631ZM119.399 38.0811C119.011 37.6263 118.814 37.0038 118.814 36.2089H118.733C118.733 37.017 118.933 37.6603 119.337 38.1339L119.399 38.0811ZM118.814 36.2089C118.814 35.4522 119.019 34.8435 119.426 34.3789L119.365 34.3253C118.942 34.8077 118.733 35.4369 118.733 36.2089H118.814ZM119.426 34.3789C119.833 33.9149 120.364 33.6825 121.025 33.6825V33.6012C120.343 33.6012 119.788 33.8424 119.365 34.3253L119.426 34.3789ZM121.025 38.1249C121.453 38.1249 121.788 37.9464 122.024 37.5916L121.957 37.5465C121.735 37.8786 121.426 38.0436 121.025 38.0436V38.1249ZM122.024 37.5918C122.262 37.2395 122.379 36.7774 122.379 36.2089H122.298C122.298 36.7669 122.183 37.2115 121.957 37.5462L122.024 37.5918ZM122.379 36.2089C122.379 35.591 122.269 35.1203 122.043 34.8031C121.815 34.4835 121.474 34.3254 121.025 34.3254V34.4067C121.452 34.4067 121.767 34.5557 121.977 34.8503C122.189 35.1475 122.298 35.5982 122.298 36.2089H122.379ZM121.025 34.3254C120.597 34.3254 120.258 34.4987 120.012 34.8438L120.079 34.891C120.309 34.5676 120.623 34.4067 121.025 34.4067V34.3254ZM120.012 34.844C119.771 35.1872 119.652 35.6434 119.652 36.2089H119.733C119.733 35.6541 119.85 35.216 120.079 34.8908L120.012 34.844ZM119.652 36.2089C119.652 36.8376 119.763 37.3164 119.993 37.639C120.224 37.9641 120.57 38.1249 121.025 38.1249V38.0436C120.592 38.0436 120.272 37.8919 120.059 37.5919C119.844 37.2893 119.733 36.8304 119.733 36.2089H119.652ZM128.327 38.7109V38.7516H128.367V38.7109H128.327ZM127.445 38.7109H127.404V38.7516H127.445V38.7109ZM127.445 34.4403H127.485V34.3996H127.445V34.4403ZM126.113 34.4403V34.3996H126.073L126.072 34.4394L126.113 34.4403ZM125.899 36.3807L125.939 36.3892L125.939 36.3891L125.899 36.3807ZM125.384 37.8475L125.419 37.8675L125.419 37.8674L125.384 37.8475ZM123.764 38.7666H123.723V38.8073H123.764V38.7666ZM123.764 37.9589V37.9183H123.723V37.9589H123.764ZM124.938 36.6731L124.899 36.6625L124.899 36.6626L124.938 36.6731ZM125.286 33.7394V33.6987H125.246V33.7394H125.286ZM128.327 33.7394H128.367V33.6987H128.327V33.7394ZM128.327 38.6703H127.445V38.7516H128.327V38.6703ZM127.485 38.7109V34.4403H127.404V38.7109H127.485ZM127.445 34.3996H126.113V34.481H127.445V34.3996ZM126.072 34.4394C126.056 35.1366 125.986 35.7808 125.859 36.3722L125.939 36.3891C126.066 35.7921 126.138 35.1428 126.153 34.4412L126.072 34.4394ZM125.859 36.3721C125.733 36.9606 125.562 37.4454 125.348 37.8277L125.419 37.8674C125.638 37.476 125.811 36.9829 125.939 36.3892L125.859 36.3721ZM125.348 37.8275C125.134 38.2078 124.904 38.4484 124.661 38.5578L124.695 38.6319C124.96 38.5124 125.201 38.2547 125.419 37.8675L125.348 37.8275ZM124.661 38.5578C124.414 38.6694 124.115 38.726 123.764 38.726V38.8073C124.124 38.8073 124.435 38.7494 124.695 38.6319L124.661 38.5578ZM123.804 38.7666V37.9589H123.723V38.7666H123.804ZM123.764 37.9996C124.053 37.9996 124.3 37.8872 124.503 37.6649C124.705 37.4439 124.862 37.1155 124.977 36.6836L124.899 36.6626C124.785 37.088 124.632 37.4024 124.443 37.6101C124.254 37.8164 124.029 37.9183 123.764 37.9183V37.9996ZM124.977 36.6837C125.21 35.8204 125.327 34.9936 125.327 34.2036H125.246C125.246 34.9856 125.13 35.8052 124.899 36.6625L124.977 36.6837ZM125.327 34.2036V33.7394H125.246V34.2036H125.327ZM125.286 33.78H128.327V33.6987H125.286V33.78ZM128.286 33.7394V38.7109H128.367V33.7394H128.286ZM133.739 36.3157V36.3563H133.772L133.779 36.3247L133.739 36.3157ZM130.156 36.3157V36.275H130.115V36.3157H130.156ZM130.875 37.8475L130.853 37.8818L130.854 37.8821L130.875 37.8475ZM132.987 37.6154L133.024 37.5971L133 37.5504L132.961 37.5848L132.987 37.6154ZM133.349 38.3303L133.375 38.3622L133.401 38.3416L133.386 38.3119L133.349 38.3303ZM132.583 38.7063L132.593 38.7459L132.593 38.7458L132.583 38.7063ZM129.886 38.1121L129.857 38.1399L129.857 38.1401L129.886 38.1121ZM129.919 34.3753L129.889 34.3475L129.889 34.3475L129.919 34.3753ZM133.206 34.2221L133.178 34.2517L133.178 34.2518L133.206 34.2221ZM130.62 34.7652L130.648 34.7947L130.648 34.7947L130.62 34.7652ZM130.184 35.6704L130.143 35.6672L130.14 35.7111H130.184V35.6704ZM132.932 35.6704V35.7111H132.972V35.6704H132.932ZM132.57 34.7467L132.541 34.7754L132.541 34.7756L132.57 34.7467ZM133.739 36.275H130.156V36.3563H133.739V36.275ZM130.115 36.3157C130.115 36.6853 130.178 37.0012 130.305 37.2619L130.378 37.2262C130.258 36.9794 130.196 36.6764 130.196 36.3157H130.115ZM130.305 37.2619C130.432 37.5222 130.615 37.7291 130.853 37.8818L130.897 37.8133C130.672 37.6689 130.499 37.4735 130.378 37.2262L130.305 37.2619ZM130.854 37.8821C131.097 38.0323 131.388 38.1064 131.725 38.1064V38.025C131.4 38.025 131.124 37.9537 130.897 37.8129L130.854 37.8821ZM131.725 38.1064C132.232 38.1064 132.662 37.9533 133.014 37.646L132.961 37.5848C132.625 37.8779 132.214 38.025 131.725 38.025V38.1064ZM132.951 37.6338L133.313 38.3487L133.386 38.3119L133.024 37.5971L132.951 37.6338ZM133.324 38.2983C133.097 38.4774 132.847 38.6001 132.574 38.6668L132.593 38.7458C132.877 38.6763 133.138 38.5483 133.375 38.3622L133.324 38.2983ZM132.574 38.6667C132.3 38.7308 131.96 38.7631 131.553 38.7631V38.8444C131.963 38.8444 132.31 38.8118 132.593 38.7459L132.574 38.6667ZM131.553 38.7631C130.889 38.7631 130.344 38.5366 129.916 38.0842L129.857 38.1401C130.302 38.6098 130.868 38.8444 131.553 38.8444V38.7631ZM129.916 38.0844C129.491 37.6291 129.277 37.0315 129.277 36.2878H129.196C129.196 37.0481 129.415 37.6668 129.857 38.1399L129.916 38.0844ZM129.277 36.2878C129.277 35.507 129.502 34.8801 129.949 34.4031L129.889 34.3475C129.426 34.8423 129.196 35.4904 129.196 36.2878H129.277ZM129.949 34.4031C130.399 33.9219 130.937 33.6825 131.562 33.6825V33.6012C130.913 33.6012 130.355 33.8508 129.889 34.3475L129.949 34.4031ZM131.562 33.6825C132.241 33.6825 132.778 33.8735 133.178 34.2517L133.233 34.1926C132.816 33.7971 132.257 33.6012 131.562 33.6012V33.6825ZM133.178 34.2518C133.577 34.6266 133.778 35.1319 133.778 35.7726H133.859C133.859 35.1134 133.651 34.5852 133.233 34.1925L133.178 34.2518ZM133.778 35.7726C133.778 35.898 133.752 36.0755 133.7 36.3067L133.779 36.3247C133.832 36.0916 133.859 35.9071 133.859 35.7726H133.778ZM131.599 34.3439C131.203 34.3439 130.866 34.4744 130.592 34.7358L130.648 34.7947C130.906 34.5485 131.222 34.4253 131.599 34.4253V34.3439ZM130.592 34.7358C130.322 34.9932 130.172 35.3042 130.143 35.6672L130.224 35.6736C130.251 35.3311 130.392 35.0386 130.648 34.7947L130.592 34.7358ZM130.184 35.7111H132.932V35.6298H130.184V35.7111ZM132.972 35.6704C132.972 35.2834 132.848 34.9646 132.598 34.7177L132.541 34.7756C132.774 35.0054 132.891 35.3024 132.891 35.6704H132.972ZM132.598 34.7179C132.348 34.4675 132.013 34.3439 131.599 34.3439V34.4253C131.996 34.4253 132.308 34.5431 132.541 34.7754L132.598 34.7179ZM137.202 36.1161L137.188 36.0779L137.084 36.1162L137.188 36.1543L137.202 36.1161ZM137.606 38.4138L137.582 38.3812L137.582 38.3813L137.606 38.4138ZM134.366 38.2467L134.332 38.225L134.31 38.2586L134.343 38.2806L134.366 38.2467ZM134.812 37.5412L134.839 37.5113L134.803 37.4782L134.777 37.5194L134.812 37.5412ZM136.947 37.88L136.972 37.9122L136.972 37.9119L136.947 37.88ZM135.545 36.4689H135.504V36.5146L135.55 36.5092L135.545 36.4689ZM135.545 35.7633L135.55 35.7229L135.504 35.7178V35.7633H135.545ZM136.831 35.5962L136.854 35.6294L136.854 35.6293L136.831 35.5962ZM136.854 34.561L136.828 34.5919L136.828 34.5924L136.854 34.561ZM134.909 34.7467L134.872 34.7635L134.89 34.8038L134.929 34.7821L134.909 34.7467ZM134.584 34.0318L134.567 33.9948L134.53 34.0117L134.547 34.0486L134.584 34.0318ZM137.49 34.0318L137.465 34.0638L137.465 34.0639L137.49 34.0318ZM137.188 36.1543C137.493 36.2653 137.717 36.4192 137.866 36.6142C138.015 36.8088 138.09 37.0474 138.09 37.3323H138.171C138.171 37.0323 138.092 36.7757 137.931 36.5649C137.77 36.3544 137.531 36.1927 137.216 36.0779L137.188 36.1543ZM138.09 37.3323C138.09 37.7814 137.921 38.1294 137.582 38.3812L137.63 38.4465C137.991 38.1783 138.171 37.8054 138.171 37.3323H138.09ZM137.582 38.3813C137.244 38.6343 136.782 38.7631 136.19 38.7631V38.8444C136.793 38.8444 137.275 38.7133 137.631 38.4464L137.582 38.3813ZM136.19 38.7631C135.539 38.7631 134.939 38.5799 134.389 38.2129L134.343 38.2806C134.907 38.6563 135.523 38.8444 136.19 38.8444V38.7631ZM134.4 38.2684L134.846 37.5629L134.777 37.5194L134.332 38.225L134.4 38.2684ZM134.784 37.5711C135.185 37.9403 135.668 38.1249 136.232 38.1249V38.0436C135.688 38.0436 135.224 37.8661 134.839 37.5113L134.784 37.5711ZM136.232 38.1249C136.538 38.1249 136.786 38.0555 136.972 37.9122L136.922 37.8478C136.755 37.9769 136.526 38.0436 136.232 38.0436V38.1249ZM136.972 37.9119C137.158 37.7649 137.252 37.5705 137.252 37.3323H137.171C137.171 37.5458 137.088 37.7166 136.922 37.8481L136.972 37.9119ZM137.252 37.3323C137.252 37.0262 137.156 36.7902 136.958 36.6321C136.762 36.4753 136.473 36.4003 136.097 36.4003V36.4817C136.464 36.4817 136.732 36.5552 136.908 36.6956C137.081 36.8345 137.171 37.0442 137.171 37.3323H137.252ZM136.097 36.4003C135.886 36.4003 135.7 36.4097 135.54 36.4285L135.55 36.5092C135.706 36.4909 135.888 36.4817 136.097 36.4817V36.4003ZM135.586 36.4689V35.7633H135.504V36.4689H135.586ZM135.541 35.8037C135.599 35.8102 135.796 35.8132 136.125 35.8132V35.7319C135.793 35.7319 135.602 35.7287 135.55 35.7229L135.541 35.8037ZM136.125 35.8132C136.433 35.8132 136.678 35.7536 136.854 35.6294L136.808 35.5629C136.65 35.6739 136.424 35.7319 136.125 35.7319V35.8132ZM136.854 35.6293C137.036 35.5009 137.127 35.3229 137.127 35.0995H137.046C137.046 35.2969 136.967 35.45 136.807 35.563L136.854 35.6293ZM137.127 35.0995C137.127 34.8574 137.046 34.6654 136.88 34.5296L136.828 34.5924C136.972 34.7103 137.046 34.8774 137.046 35.0995H137.127ZM136.881 34.5301C136.719 34.3918 136.495 34.3254 136.214 34.3254V34.4067C136.483 34.4067 136.686 34.4702 136.828 34.5919L136.881 34.5301ZM136.214 34.3254C135.787 34.3254 135.346 34.4549 134.889 34.7112L134.929 34.7821C135.376 34.531 135.804 34.4067 136.214 34.4067V34.3254ZM134.946 34.7298L134.621 34.015L134.547 34.0486L134.872 34.7635L134.946 34.7298ZM134.601 34.0688C135.166 33.8109 135.719 33.6825 136.26 33.6825V33.6012C135.706 33.6012 135.141 33.7328 134.567 33.9948L134.601 34.0688ZM136.26 33.6825C136.741 33.6825 137.142 33.8103 137.465 34.0638L137.515 33.9998C137.176 33.7334 136.756 33.6012 136.26 33.6012V33.6825ZM137.465 34.0639C137.786 34.3129 137.946 34.6443 137.946 35.0623H138.027C138.027 34.62 137.856 34.2645 137.515 33.9997L137.465 34.0639ZM137.946 35.0623C137.946 35.3104 137.883 35.517 137.758 35.6844C137.633 35.8522 137.444 35.9839 137.188 36.0779L137.216 36.1542C137.483 36.0563 137.687 35.9165 137.823 35.733C137.96 35.5492 138.027 35.3249 138.027 35.0623H137.946ZM143.135 38.7109V38.7516H143.175V38.7109H143.135ZM142.248 38.7109H142.207V38.7516H142.248V38.7109ZM142.248 36.4689H142.289V36.4282H142.248V36.4689ZM139.96 36.4689V36.4282H139.919V36.4689H139.96ZM139.96 38.7109V38.7516H140V38.7109H139.96ZM139.073 38.7109H139.032V38.7516H139.073V38.7109ZM139.073 33.7394V33.6987H139.032V33.7394H139.073ZM139.96 33.7394H140V33.6987H139.96V33.7394ZM139.96 35.7354H139.919V35.7761H139.96V35.7354ZM142.248 35.7354V35.7761H142.289V35.7354H142.248ZM142.248 33.7394V33.6987H142.207V33.7394H142.248ZM143.135 33.7394H143.175V33.6987H143.135V33.7394ZM143.135 38.6703H142.248V38.7516H143.135V38.6703ZM142.289 38.7109V36.4689H142.207V38.7109H142.289ZM142.248 36.4282H139.96V36.5095H142.248V36.4282ZM139.919 36.4689V38.7109H140V36.4689H139.919ZM139.96 38.6703H139.073V38.7516H139.96V38.6703ZM139.114 38.7109V33.7394H139.032V38.7109H139.114ZM139.073 33.78H139.96V33.6987H139.073V33.78ZM139.919 33.7394V35.7354H140V33.7394H139.919ZM139.96 35.7761H142.248V35.6948H139.96V35.7761ZM142.289 35.7354V33.7394H142.207V35.7354H142.289ZM142.248 33.78H143.135V33.6987H142.248V33.78ZM143.094 33.7394V38.7109H143.175V33.7394H143.094ZM149.652 38.7109V38.7516H149.693V38.7109H149.652ZM148.784 38.7109H148.743V38.7516H148.784V38.7109ZM148.784 33.7394V33.6987H148.743V33.7394H148.784ZM149.652 33.7394H149.693V33.6987H149.652V33.7394ZM145.261 35.5637H145.22V35.6107L145.267 35.6039L145.261 35.5637ZM147.837 37.9311L147.872 37.9519L147.872 37.9518L147.837 37.9311ZM144.393 38.7109H144.352V38.7516H144.393V38.7109ZM144.393 33.7394V33.6987H144.352V33.7394H144.393ZM145.261 33.7394H145.301V33.6987H145.261V33.7394ZM145.261 37.9961H145.22V38.0328L145.257 38.0365L145.261 37.9961ZM146.89 37.7918L146.865 37.76L146.865 37.7602L146.89 37.7918ZM146.876 36.4224L146.852 36.4548L146.852 36.455L146.876 36.4224ZM145.261 36.2507L145.256 36.2103L145.22 36.2145V36.2507H145.261ZM149.652 38.6703H148.784V38.7516H149.652V38.6703ZM148.825 38.7109V33.7394H148.743V38.7109H148.825ZM148.784 33.78H149.652V33.6987H148.784V33.78ZM149.611 33.7394V38.7109H149.693V33.7394H149.611ZM145.267 35.6039C145.518 35.5671 145.798 35.5486 146.106 35.5486V35.4673C145.795 35.4673 145.511 35.486 145.255 35.5234L145.267 35.6039ZM146.106 35.5486C146.738 35.5486 147.213 35.6853 147.537 35.9525L147.589 35.8897C147.245 35.606 146.748 35.4673 146.106 35.4673V35.5486ZM147.537 35.9525C147.86 36.2183 148.024 36.6124 148.024 37.1419H148.105C148.105 36.5946 147.935 36.1747 147.589 35.8897L147.537 35.9525ZM148.024 37.1419C148.024 37.4031 147.95 37.6591 147.802 37.9104L147.872 37.9518C148.027 37.6893 148.105 37.4192 148.105 37.1419H148.024ZM147.802 37.9102C147.655 38.1563 147.44 38.3444 147.156 38.4744L147.19 38.5483C147.488 38.4121 147.716 38.2134 147.872 37.9519L147.802 37.9102ZM147.156 38.4744C146.872 38.6043 146.516 38.6703 146.087 38.6703V38.7516C146.524 38.7516 146.892 38.6845 147.19 38.5483L147.156 38.4744ZM146.087 38.6703H144.393V38.7516H146.087V38.6703ZM144.433 38.7109V33.7394H144.352V38.7109H144.433ZM144.393 33.78H145.261V33.6987H144.393V33.78ZM145.22 33.7394V35.5637H145.301V33.7394H145.22ZM145.257 38.0365C145.469 38.0584 145.752 38.0692 146.106 38.0692V37.9879C145.753 37.9879 145.473 37.9771 145.265 37.9556L145.257 38.0365ZM146.106 38.0692C146.44 38.0692 146.712 37.9887 146.916 37.8234L146.865 37.7602C146.679 37.9106 146.427 37.9879 146.106 37.9879V38.0692ZM146.915 37.8236C147.125 37.657 147.228 37.4216 147.228 37.1234H147.147C147.147 37.4007 147.052 37.611 146.865 37.76L146.915 37.8236ZM147.228 37.1234C147.228 36.801 147.12 36.5539 146.901 36.3898L146.852 36.455C147.047 36.6004 147.147 36.8206 147.147 37.1234H147.228ZM146.901 36.39C146.687 36.2284 146.406 36.1497 146.059 36.1497V36.231C146.394 36.231 146.656 36.307 146.852 36.4548L146.901 36.39ZM146.059 36.1497C145.871 36.1497 145.603 36.17 145.256 36.2103L145.265 36.2911C145.612 36.2509 145.876 36.231 146.059 36.231V36.1497ZM145.22 36.2507V37.9961H145.301V36.2507H145.22ZM155.028 38.7109V38.7516H155.108L155.06 38.6867L155.028 38.7109ZM153.932 38.7109L153.898 38.7335L153.91 38.7516H153.932V38.7109ZM152.66 36.8077L152.694 36.7851L152.66 36.7338L152.626 36.7856L152.66 36.8077ZM151.425 38.7109V38.7516H151.447L151.459 38.7331L151.425 38.7109ZM150.376 38.7109L150.343 38.6871L150.297 38.7516H150.376V38.7109ZM152.224 36.1625L152.257 36.1863L152.274 36.1629L152.257 36.1392L152.224 36.1625ZM150.529 33.7394V33.6987H150.451L150.496 33.7627L150.529 33.7394ZM151.565 33.7394L151.599 33.7175L151.587 33.6987H151.565V33.7394ZM152.679 35.4894L152.644 35.5112L152.678 35.5636L152.712 35.5121L152.679 35.4894ZM153.858 33.7394V33.6987H153.836L153.824 33.7166L153.858 33.7394ZM154.856 33.7394L154.889 33.7634L154.936 33.6987H154.856V33.7394ZM153.106 36.1253L153.073 36.1013L153.055 36.1255L153.073 36.1496L153.106 36.1253ZM155.028 38.6703H153.932V38.7516H155.028V38.6703ZM153.966 38.6883L152.694 36.7851L152.626 36.8303L153.898 38.7335L153.966 38.6883ZM152.626 36.7856L151.391 38.6888L151.459 38.7331L152.694 36.8298L152.626 36.7856ZM151.425 38.6703H150.376V38.7516H151.425V38.6703ZM150.409 38.7348L152.257 36.1863L152.191 36.1386L150.343 38.6871L150.409 38.7348ZM152.257 36.1392L150.563 33.7161L150.496 33.7627L152.19 36.1858L152.257 36.1392ZM150.529 33.78H151.565V33.6987H150.529V33.78ZM151.53 33.7612L152.644 35.5112L152.713 35.4676L151.599 33.7175L151.53 33.7612ZM152.712 35.5121L153.891 33.7621L153.824 33.7166L152.645 35.4667L152.712 35.5121ZM153.858 33.78H154.856V33.6987H153.858V33.78ZM154.823 33.7153L153.073 36.1013L153.139 36.1494L154.889 33.7634L154.823 33.7153ZM153.073 36.1496L154.995 38.7352L155.06 38.6867L153.138 36.1011L153.073 36.1496ZM160.538 39.5279L160.576 39.5419L160.576 39.5417L160.538 39.5279ZM159.818 40.3124L159.798 40.2772L159.798 40.2773L159.818 40.3124ZM158.588 40.6327H158.547V40.6734H158.588V40.6327ZM158.588 39.8436V39.8029H158.547V39.8436H158.588ZM159.53 39.5836L159.508 39.5494L159.508 39.5496L159.53 39.5836ZM159.786 38.1493L159.748 38.164L159.748 38.1641L159.786 38.1493ZM158.063 33.7115V33.6709H158.004L158.025 33.7262L158.063 33.7115ZM158.969 33.7115L159.007 33.6971L158.997 33.6709H158.969V33.7115ZM160.422 37.5504L160.384 37.5648L160.423 37.67L160.46 37.5637L160.422 37.5504ZM161.744 33.7115V33.6709H161.716L161.706 33.6983L161.744 33.7115ZM162.636 33.7115L162.674 33.7253L162.694 33.6709H162.636V33.7115ZM160.499 39.5139C160.389 39.8154 160.157 40.0702 159.798 40.2772L159.838 40.3477C160.21 40.1338 160.457 39.8656 160.576 39.5419L160.499 39.5139ZM159.798 40.2773C159.439 40.4869 159.036 40.5921 158.588 40.5921V40.6734C159.05 40.6734 159.467 40.565 159.839 40.3475L159.798 40.2773ZM158.629 40.6327V39.8436H158.547V40.6327H158.629ZM158.588 39.8842C158.957 39.8842 159.279 39.7959 159.552 39.6177L159.508 39.5496C159.249 39.718 158.943 39.8029 158.588 39.8029V39.8842ZM159.552 39.6179C159.826 39.4425 159.97 39.2223 159.97 38.957H159.889C159.889 39.1868 159.766 39.3843 159.508 39.5494L159.552 39.6179ZM159.97 38.957C159.97 38.6585 159.921 38.3841 159.823 38.1344L159.748 38.1641C159.842 38.4033 159.889 38.6674 159.889 38.957H159.97ZM159.823 38.1345L158.101 33.6968L158.025 33.7262L159.748 38.164L159.823 38.1345ZM158.063 33.7522H158.969V33.6709H158.063V33.7522ZM158.931 33.7259L160.384 37.5648L160.46 37.536L159.007 33.6971L158.931 33.7259ZM160.46 37.5637L161.783 33.7248L161.706 33.6983L160.383 37.5372L160.46 37.5637ZM161.744 33.7522H162.636V33.6709H161.744V33.7522ZM162.598 33.6977L160.499 39.5141L160.576 39.5417L162.674 33.7253L162.598 33.6977ZM167.097 34.1479L167.13 34.171L167.151 34.1412L167.124 34.1173L167.097 34.1479ZM166.67 34.7652L166.643 34.7957L166.677 34.8261L166.703 34.7884L166.67 34.7652ZM166.178 34.5053L166.163 34.5434L166.164 34.5436L166.178 34.5053ZM164.372 37.5969L164.342 37.6239L164.342 37.6241L164.372 37.5969ZM166.786 37.5969L166.823 37.58L166.801 37.5334L166.761 37.5647L166.786 37.5969ZM167.125 38.3396L167.147 38.3733L167.176 38.3541L167.162 38.3227L167.125 38.3396ZM163.689 38.1214L163.66 38.1496L163.66 38.1498L163.689 38.1214ZM163.727 34.3521L163.698 34.3235V34.3235L163.727 34.3521ZM167.063 34.1247L166.636 34.7421L166.703 34.7884L167.13 34.171L167.063 34.1247ZM166.697 34.7348C166.583 34.6339 166.413 34.5451 166.191 34.4669L166.164 34.5436C166.382 34.6202 166.54 34.7047 166.643 34.7957L166.697 34.7348ZM166.192 34.4672C165.971 34.3851 165.746 34.3439 165.518 34.3439V34.4253C165.736 34.4253 165.951 34.4646 166.163 34.5434L166.192 34.4672ZM165.518 34.3439C165.025 34.3439 164.631 34.5186 164.341 34.8693L164.403 34.9211C164.676 34.591 165.047 34.4253 165.518 34.4253V34.3439ZM164.341 34.8693C164.051 35.219 163.909 35.6903 163.909 36.2785H163.99C163.99 35.7032 164.129 35.2522 164.403 34.9211L164.341 34.8693ZM163.909 36.2785C163.909 36.8484 164.051 37.2986 164.342 37.6239L164.402 37.5698C164.129 37.2638 163.99 36.8351 163.99 36.2785H163.909ZM164.342 37.6241C164.633 37.9473 165.049 38.1064 165.583 38.1064V38.025C165.066 38.025 164.674 37.8716 164.402 37.5696L164.342 37.6241ZM165.583 38.1064C165.991 38.1064 166.4 37.9455 166.811 37.6291L166.761 37.5647C166.36 37.8734 165.968 38.025 165.583 38.025V38.1064ZM166.749 37.6137L167.088 38.3565L167.162 38.3227L166.823 37.58L166.749 37.6137ZM167.102 38.3058C166.649 38.6097 166.071 38.7631 165.365 38.7631V38.8444C166.083 38.8444 166.678 38.6884 167.147 38.3733L167.102 38.3058ZM165.365 38.7631C164.701 38.7631 164.153 38.5396 163.719 38.0931L163.66 38.1498C164.111 38.6131 164.68 38.8444 165.365 38.8444V38.7631ZM163.719 38.0933C163.288 37.6444 163.071 37.041 163.071 36.2785H162.99C162.99 37.0572 163.212 37.6824 163.66 38.1496L163.719 38.0933ZM163.071 36.2785C163.071 35.4727 163.301 34.8418 163.756 34.3807L163.698 34.3235C163.224 34.8032 162.99 35.4566 162.99 36.2785H163.071ZM163.756 34.3807C164.214 33.9163 164.829 33.6825 165.607 33.6825V33.6012C164.812 33.6012 164.174 33.8409 163.698 34.3235L163.756 34.3807ZM165.607 33.6825C165.87 33.6825 166.149 33.7371 166.442 33.8471L166.47 33.7709C166.17 33.6581 165.882 33.6012 165.607 33.6012V33.6825ZM166.442 33.8471C166.738 33.9579 166.945 34.0688 167.07 34.1784L167.124 34.1173C166.988 33.9979 166.769 33.8829 166.47 33.7709L166.442 33.8471ZM172.194 38.7109V38.7516H172.234V38.7109H172.194ZM171.312 38.7109H171.271V38.7516H171.312V38.7109ZM171.312 34.4403H171.352V34.3996H171.312V34.4403ZM169.979 34.4403V34.3996H169.94L169.939 34.4394L169.979 34.4403ZM169.766 36.3807L169.806 36.3892L169.806 36.3891L169.766 36.3807ZM169.251 37.8475L169.286 37.8675L169.286 37.8674L169.251 37.8475ZM167.631 38.7666H167.59V38.8073H167.631V38.7666ZM167.631 37.9589V37.9183H167.59V37.9589H167.631ZM168.805 36.6731L168.766 36.6625L168.766 36.6626L168.805 36.6731ZM169.153 33.7394V33.6987H169.112V33.7394H169.153ZM172.194 33.7394H172.234V33.6987H172.194V33.7394ZM172.194 38.6703H171.312V38.7516H172.194V38.6703ZM171.352 38.7109V34.4403H171.271V38.7109H171.352ZM171.312 34.3996H169.979V34.481H171.312V34.3996ZM169.939 34.4394C169.923 35.1366 169.852 35.7808 169.726 36.3722L169.806 36.3891C169.933 35.7921 170.005 35.1428 170.02 34.4412L169.939 34.4394ZM169.726 36.3721C169.6 36.9606 169.429 37.4454 169.215 37.8277L169.286 37.8674C169.505 37.476 169.678 36.9829 169.806 36.3892L169.726 36.3721ZM169.215 37.8275C169.001 38.2078 168.771 38.4484 168.528 38.5578L168.562 38.6319C168.827 38.5124 169.067 38.2547 169.286 37.8675L169.215 37.8275ZM168.528 38.5578C168.281 38.6694 167.982 38.726 167.631 38.726V38.8073C167.991 38.8073 168.301 38.7494 168.562 38.6319L168.528 38.5578ZM167.671 38.7666V37.9589H167.59V38.7666H167.671ZM167.631 37.9996C167.92 37.9996 168.167 37.8872 168.37 37.6649C168.571 37.4439 168.729 37.1155 168.844 36.6836L168.766 36.6626C168.652 37.088 168.499 37.4024 168.31 37.6101C168.121 37.8164 167.896 37.9183 167.631 37.9183V37.9996ZM168.844 36.6837C169.077 35.8204 169.194 34.9936 169.194 34.2036H169.112C169.112 34.9856 168.997 35.8052 168.766 36.6625L168.844 36.6837ZM169.194 34.2036V33.7394H169.112V34.2036H169.194ZM169.153 33.78H172.194V33.6987H169.153V33.78ZM172.153 33.7394V38.7109H172.234V33.7394H172.153ZM175.346 39.5279L175.384 39.5419L175.384 39.5417L175.346 39.5279ZM174.626 40.3124L174.606 40.2772L174.606 40.2773L174.626 40.3124ZM173.396 40.6327H173.355V40.6734H173.396V40.6327ZM173.396 39.8436V39.8029H173.355V39.8436H173.396ZM174.338 39.5836L174.316 39.5494L174.316 39.5496L174.338 39.5836ZM174.594 38.1493L174.556 38.164L174.556 38.1641L174.594 38.1493ZM172.871 33.7115V33.6709H172.812L172.833 33.7262L172.871 33.7115ZM173.777 33.7115L173.815 33.6971L173.805 33.6709H173.777V33.7115ZM175.229 37.5504L175.191 37.5648L175.231 37.67L175.268 37.5637L175.229 37.5504ZM176.552 33.7115V33.6709H176.523L176.514 33.6983L176.552 33.7115ZM177.444 33.7115L177.482 33.7253L177.502 33.6709H177.444V33.7115ZM175.307 39.5139C175.197 39.8154 174.965 40.0702 174.606 40.2772L174.646 40.3477C175.018 40.1338 175.265 39.8656 175.384 39.5419L175.307 39.5139ZM174.606 40.2773C174.247 40.4869 173.844 40.5921 173.396 40.5921V40.6734C173.857 40.6734 174.275 40.565 174.647 40.3475L174.606 40.2773ZM173.437 40.6327V39.8436H173.355V40.6327H173.437ZM173.396 39.8842C173.765 39.8842 174.087 39.7959 174.36 39.6177L174.316 39.5496C174.057 39.718 173.751 39.8029 173.396 39.8029V39.8842ZM174.36 39.6179C174.634 39.4425 174.778 39.2223 174.778 38.957H174.697C174.697 39.1868 174.574 39.3843 174.316 39.5494L174.36 39.6179ZM174.778 38.957C174.778 38.6585 174.729 38.3841 174.631 38.1344L174.556 38.1641C174.65 38.4033 174.697 38.6674 174.697 38.957H174.778ZM174.631 38.1345L172.909 33.6968L172.833 33.7262L174.556 38.164L174.631 38.1345ZM172.871 33.7522H173.777V33.6709H172.871V33.7522ZM173.739 33.7259L175.191 37.5648L175.268 37.536L173.815 33.6971L173.739 33.7259ZM175.268 37.5637L176.591 33.7248L176.514 33.6983L175.191 37.5372L175.268 37.5637ZM176.552 33.7522H177.444V33.6709H176.552V33.7522ZM177.405 33.6977L175.307 39.5141L175.384 39.5417L177.482 33.7253L177.405 33.6977ZM181.352 34.4821V34.5227H181.393V34.4821H181.352ZM179.036 34.4821V34.4414H178.995V34.4821H179.036ZM179.036 38.7109V38.7516H179.077V38.7109H179.036ZM178.149 38.7109H178.109V38.7516H178.149V38.7109ZM178.149 33.7394V33.6987H178.109V33.7394H178.149ZM181.352 33.7394H181.393V33.6987H181.352V33.7394ZM181.352 34.4414H179.036V34.5227H181.352V34.4414ZM178.995 34.4821V38.7109H179.077V34.4821H178.995ZM179.036 38.6703H178.149V38.7516H179.036V38.6703ZM178.19 38.7109V33.7394H178.109V38.7109H178.19ZM178.149 33.78H181.352V33.6987H178.149V33.78ZM181.312 33.7394V34.4821H181.393V33.7394H181.312Z" fill="#2B2A29"/>
</svg>
