<svg width="18" height="23" viewBox="0 0 18 23" fill="none" xmlns="http://www.w3.org/2000/svg">
<path d="M9.36994 11.5271C8.18899 11.5271 7.22276 10.5656 7.22276 9.39047C7.22276 8.2153 8.18899 7.25379 9.36994 7.25379C10.5509 7.25379 11.5171 8.2153 11.5171 9.39047C11.5171 10.5656 10.5509 11.5271 9.36994 11.5271ZM15.8114 9.60414C15.8114 5.72606 12.9664 2.98043 9.36994 2.98043C5.77342 2.98043 2.92842 5.72606 2.92842 9.60414C2.92842 12.1041 5.02191 15.4159 9.36994 19.3688C13.718 15.4159 15.8114 12.1041 15.8114 9.60414ZM9.36994 0.84375C13.879 0.84375 17.9586 4.2838 17.9586 9.60414C17.9586 13.151 15.0921 17.3496 9.36994 22.2105C3.64772 17.3496 0.78125 13.151 0.78125 9.60414C0.78125 4.2838 4.86088 0.84375 9.36994 0.84375Z" fill="white"/>
</svg>
