<svg width="55" height="54" viewBox="0 0 55 54" fill="none" xmlns="http://www.w3.org/2000/svg">
<path d="M27.5018 53.8962C42.1384 53.8962 54.0036 42.0309 54.0036 27.3944C54.0036 12.7578 42.1384 0.892578 27.5018 0.892578C12.8653 0.892578 1 12.7578 1 27.3944C1 42.0309 12.8653 53.8962 27.5018 53.8962Z" fill="#FEFEFE" stroke="#2B2A29" stroke-width="0.106561" stroke-miterlimit="22.9256"/>
<path fill-rule="evenodd" clip-rule="evenodd" d="M19.6901 22.3274C19.7637 22.4495 20.1078 22.8616 20.2399 22.9325C20.9528 23.3158 22.249 23.1588 22.5077 22.9676C22.7791 22.7671 22.9826 22.5967 22.7828 22.2902C22.6111 22.0267 22.382 22.039 22.1287 22.1664C21.8551 22.3042 21.7093 22.3245 21.4001 22.3326C20.6623 22.3522 20.3164 21.5857 20.4477 20.9592L20.4624 20.889C20.6262 20.107 21.7623 20.4233 21.5379 19.5663C21.3375 18.8008 20.6342 19.3664 20.2622 18.8618C19.9977 18.5027 19.9491 18.0148 20.1178 17.6081C20.4117 16.9508 21.061 17.0297 21.6507 17.1061C21.8275 17.1287 21.9418 17.1641 22.0708 17.0399C22.1296 16.9834 22.1785 16.4842 22.191 16.3762C22.2195 16.1287 22.4421 15.7612 22.6116 15.5818C22.8491 15.3305 23.131 15.1544 23.4793 15.1271C24.0095 15.0856 24.3293 15.154 24.7543 15.4681C25.0301 15.6717 25.201 16.2032 25.2046 16.6468C25.207 16.9223 25.1877 17.1167 25.1541 17.3208C24.9056 17.8439 24.7606 17.9894 24.1913 18.1925C23.8399 18.3178 23.3047 18.249 23.3022 18.7434C23.3005 19.0553 23.4373 19.2434 23.7567 19.2634C24.2077 19.2917 24.6546 19.1901 25.0389 18.9535C25.5159 18.6564 25.8463 18.3718 26.1371 17.8888C26.3259 17.5755 26.3713 17.1209 26.3825 16.7605C26.4007 16.1772 26.3309 15.8314 26.0322 15.3324C25.6357 14.6698 24.9284 14.2046 24.1741 14.0572C23.8365 13.9912 23.365 14.001 23.0376 14.107C22.4479 14.2977 21.8086 14.7468 21.4951 15.2868C21.1753 15.838 21.421 15.9811 20.6883 16.0621C19.7473 16.1832 19.1901 16.8826 18.9438 17.7533C18.8218 18.1843 19.0264 18.9021 19.2906 19.2539C19.4212 19.4142 19.5932 19.5765 19.7357 19.7316C19.9077 19.9187 19.9391 19.9105 19.7809 20.1222C19.5634 20.4135 19.4612 20.534 19.4165 20.921C19.3897 21.1517 19.372 21.318 19.3844 21.5517C19.2298 21.5672 18.6549 21.7387 18.151 21.9365C17.9045 22.0333 17.2823 22.3274 17.0485 22.3228C16.5337 22.3127 16.4283 20.7584 16.4551 20.376C16.5457 19.089 17.1209 18.4005 18.1035 17.6415C18.209 17.56 18.2918 17.5529 18.2619 17.4452C18.1538 17.0542 18.0893 16.4635 18.1334 16.0621C18.2033 15.4255 18.7981 14.8227 19.319 14.5009C19.7687 14.2232 20.1762 14.1628 20.6883 14.1401C20.8764 14.1319 21.2253 14.132 21.3974 14.1072C21.422 14.1036 21.6301 13.7287 21.6537 13.6884C21.9306 13.2148 21.9769 13.0397 22.4202 12.6938C22.9012 12.3186 23.805 11.9907 24.4141 11.9735C25.5239 11.9422 26.0535 12.2628 26.2562 12.3398C26.5672 12.4578 26.9994 12.8391 26.9554 12.986C26.9431 13.0272 26.9525 27.4593 26.995 31.3934C27.0012 31.9627 27.1244 32.2292 26.5538 32.5515C26.2211 32.7319 25.9361 32.8007 25.5594 32.8129C25.4506 32.8164 24.5754 32.7753 24.5724 32.7777C24.5423 32.8007 25.1523 34.772 25.211 34.9686C25.723 36.6888 26.235 38.4089 26.7471 40.129H28.3589L28.374 40.0768C28.781 38.6676 29.1879 37.2583 29.595 35.8491C29.8723 34.8897 30.1514 33.9332 30.4268 32.973C30.4693 32.8371 30.5343 32.7647 30.3878 32.7796C29.9916 32.82 29.6993 32.826 29.3016 32.7907C28.5637 32.7209 28.178 32.6533 28.1781 31.8231C28.2573 26.4125 27.9113 13.7765 28.1843 12.9499C28.3426 12.4706 28.8196 12.3638 29.0395 12.2708C29.5252 12.0652 30.1345 11.957 30.6617 11.9826C31.5144 12.0241 31.9508 12.1876 32.6044 12.7344C33.0739 13.1271 33.3168 13.4328 33.6484 13.9401C33.6954 14.0121 33.7282 14.1127 33.7994 14.1188C34.393 14.1711 35.0537 14.1429 35.6067 14.409C36.1215 14.6568 36.49 14.9702 36.7419 15.4885C36.9459 15.9084 37.0133 16.5009 36.9449 16.9617C36.9227 17.1109 36.7901 17.3814 36.7893 17.4407C36.7883 17.5134 37.3379 17.9373 37.4256 18.0104C37.9135 18.4171 38.3503 19.033 38.5292 19.6458C38.6795 20.2275 38.656 21.0366 38.5623 21.6292C38.4878 22.1009 38.3976 22.1685 38.258 22.2053C38.0663 22.2558 37.7815 22.1463 37.3158 22.0158C37.1916 21.9812 36.9034 21.8763 36.5395 21.7857C36.3074 21.7278 35.9874 21.6425 35.7919 21.5952C35.8351 21.3923 35.8334 21.2678 35.8326 21.0385C35.8313 20.7298 35.7112 20.4167 35.5205 20.1753C35.4863 20.132 35.3201 19.9482 35.338 19.8761C35.3549 19.8077 35.8713 19.3173 35.973 19.1745C36.2429 18.7948 36.3924 18.1265 36.2739 17.6696C36.1617 17.2369 35.8315 16.6502 35.4649 16.3881C35.2033 16.2158 34.8429 16.0389 34.5274 16.0155C33.9565 15.9733 34.0329 15.8972 33.8071 15.4001C33.5168 14.7612 32.877 14.3216 32.2346 14.0824C31.8882 13.9534 31.3625 13.9513 31.002 14.0281C30.2949 14.1786 29.6167 14.6258 29.2299 15.2391C28.9559 15.6735 28.8702 15.948 28.8425 16.468C28.8243 16.8108 28.8914 17.4957 29.06 17.7928C29.3322 18.2728 29.7344 18.6355 30.2039 18.9204C30.5887 19.1539 31.0752 19.2745 31.5241 19.2157C31.8501 19.1732 31.9779 18.9208 31.9119 18.6092C31.8189 18.1706 31.026 18.2203 30.657 18.03C29.8814 17.6302 29.7492 16.406 30.1812 15.7245C30.3799 15.4111 30.8547 15.1487 31.2231 15.0954C31.5604 15.0466 32.0209 15.074 32.3046 15.2777C33.3488 16.0281 32.8892 16.8287 33.2274 17.0473C33.3593 17.1325 33.7531 17.0508 33.9086 17.0332C34.4265 16.9784 34.8713 17.0445 35.1116 17.572C35.2977 17.9806 35.2107 18.4617 34.9642 18.8259C34.5195 19.3374 33.9226 18.7702 33.7059 19.475C33.3648 20.5842 35.1704 19.8863 34.7373 21.5658C34.6459 21.9202 34.4788 22.1202 34.1394 22.2564C33.6278 22.3515 33.5351 22.2871 33.0687 22.1126C32.7012 21.9749 32.3846 22.086 32.3569 22.5188C32.319 23.109 33.2301 23.2928 33.6706 23.28C34.1813 23.2653 34.4823 23.2135 34.9587 22.9451C35.0826 22.8753 35.2075 22.7815 35.3086 22.6813C35.4339 22.5572 35.4942 22.507 35.574 22.3712C35.8936 22.533 37.0704 22.8184 37.4305 23.0429C37.8384 23.2974 37.9575 23.3755 38.1523 23.783C38.5142 24.5406 38.18 25.3493 37.8129 26.0716C37.6545 26.3833 37.3954 26.6466 37.1029 26.8374C36.8012 27.0343 36.5984 27.0027 36.3397 27.2247C36.173 27.3678 36.2885 27.6479 36.3416 27.8212C36.5729 28.5763 36.4973 29.034 36.2597 29.7632C36.0534 30.3963 35.6846 30.854 35.157 31.2532C34.8308 31.5 34.2336 31.8179 33.8264 31.8611C32.8752 31.9545 31.9357 31.7376 31.2319 31.0607C30.8395 30.6832 30.4943 30.344 30.3963 29.7905C30.3565 29.565 30.3398 29.0226 30.291 28.8819C30.2139 28.6594 29.9285 28.5753 29.7291 28.6411C29.3708 28.7592 29.3458 29.0711 29.3554 29.3936C29.39 30.5456 30.0842 31.6175 31.0111 32.2685C31.4228 32.5524 31.7024 32.5315 31.5467 33.0828C31.1724 34.4068 30.7971 35.7306 30.4229 37.0545C30.2254 37.7526 30.0281 38.4507 29.8306 39.149L29.8236 39.1743C29.7736 39.3544 29.7287 39.5458 29.6698 39.7223C29.6234 39.8613 29.4924 40.0974 29.6574 40.2013C29.7662 40.2698 30.4204 40.3566 30.5911 40.3825C30.7788 40.411 31.1667 40.4261 30.761 40.5737C30.4722 40.6787 30.1619 40.7718 29.8687 40.8718C29.3878 41.0366 28.9068 41.2013 28.4259 41.3659C28.3735 41.3837 28.321 41.4011 28.2686 41.4185C28.078 41.4808 27.6679 41.5611 28.1359 41.6243C28.8084 41.7151 29.4863 41.7839 30.1604 41.8658C30.3009 41.8804 30.9539 41.9395 31.0322 41.979C31.1087 42.0174 30.5847 42.1236 30.5689 42.1271C30.313 42.1834 30.0653 42.2399 29.8102 42.3008C29.325 42.4165 28.8396 42.5323 28.3543 42.648C28.3051 42.6592 28.2559 42.6704 28.2065 42.6814C28.1585 42.692 27.7642 42.7548 27.818 42.82L27.8228 42.8238C27.8995 42.8758 28.7613 43.006 28.9254 43.0335C29.1041 43.0665 29.2829 43.0995 29.4614 43.1325L29.4884 43.1376C29.7855 43.1924 30.0824 43.2479 30.3794 43.302C30.4398 43.312 31.0056 43.3904 30.974 43.4568C30.9581 43.4904 29.6467 43.8971 29.4884 43.9481C29.23 44.0333 28.9724 44.1228 28.7126 44.2037C28.6011 44.2384 28.3526 44.2958 28.2672 44.3379C28.1089 44.4157 28.4438 44.5115 28.493 44.5275C28.8398 44.6394 29.1941 44.7405 29.5424 44.8511C29.6358 44.8799 30.2457 45.06 30.2689 45.0992C30.2548 45.126 28.8734 45.0912 28.7175 45.089C28.5453 45.0873 28.3732 45.0856 28.201 45.0839L28.1738 45.0836C27.9827 45.0818 27.7917 45.0796 27.6007 45.0772L27.5738 45.0769C27.2761 45.073 26.9785 45.068 26.6808 45.0637C26.2211 45.0568 25.7314 45.0435 25.2738 45.0575C25.1126 45.0625 24.6373 45.1042 25.0801 44.9267C25.6795 44.6864 26.2863 44.4574 26.8883 44.2236C27.1332 44.1307 27.379 44.0405 27.6239 43.9477C27.8138 43.8755 28.0443 43.7933 28.2263 43.7111C28.3377 43.6609 28.4384 43.6177 28.2642 43.5996C27.8871 43.5606 27.4568 43.5663 27.0733 43.557C26.5386 43.5359 26.0038 43.5147 25.469 43.4936L25.4415 43.4925C25.2586 43.4849 25.0744 43.4746 24.8915 43.4693C24.7293 43.4647 24.0219 43.5091 24.5996 43.3019C25.346 43.0341 26.0943 42.7705 26.8412 42.5038C26.9262 42.4761 27.5457 42.2854 27.5347 42.2152C27.5308 42.1903 27.2955 42.1714 27.2715 42.1687C26.4954 42.0852 25.6981 42.036 24.9182 41.9777C24.7033 41.9614 24.0514 41.9707 24.6731 41.7758C25.4075 41.5456 26.1431 41.3178 26.8833 41.1066C26.9518 41.0871 27.1932 41.0057 27.1879 40.9493C27.1824 40.8931 26.7128 40.8097 26.6267 40.7973C25.9834 40.7051 25.3414 40.6047 24.6961 40.5259C24.5999 40.5142 23.9699 40.4684 24.4015 40.3645C24.6076 40.3171 24.816 40.2845 25.0234 40.2438C25.3492 40.1797 25.4998 40.1848 25.4002 39.8135C25.3196 39.5123 25.2201 39.2046 25.1343 38.9025C25.0352 38.5527 24.9362 38.2028 24.8371 37.8529C24.5399 36.8031 24.2426 35.7534 23.9454 34.7037C23.7968 34.1786 23.6246 33.6219 23.4912 33.0972C23.3915 32.7054 23.37 32.577 23.7536 32.3542C24.017 32.2014 24.1544 32.1265 24.3924 31.9222C24.656 31.6961 25.168 31.0619 25.3158 30.7494C25.4832 30.3683 25.6398 29.3695 25.5597 28.9592C25.5219 28.7661 25.2138 28.6903 25.0401 28.7092C24.8273 28.7321 24.7308 28.9998 24.6912 29.1798C24.5964 29.6108 24.5644 30.0068 24.3889 30.429C24.358 30.4914 24.3223 30.5487 24.2854 30.6077C24.0141 31.0407 23.7971 31.4093 23.3445 31.6726C22.6771 32.061 22.1638 32.0103 21.4355 31.9999C20.8583 31.9916 20.0055 31.5571 19.5945 31.1472C19.0987 30.6529 18.8046 30.124 18.6332 29.4485C18.5624 29.1695 18.5406 28.4025 18.59 28.1246C18.6149 27.9844 18.8329 27.4948 18.7921 27.426C18.6897 27.2534 18.0334 26.9664 17.8201 26.83C17.7298 26.7701 17.6533 26.714 17.5714 26.643C16.9372 26.0935 16.738 25.4855 16.8005 24.6657C16.8549 23.9538 17.1006 23.5713 17.6702 23.1254C17.8348 22.9966 18.0646 22.8915 18.3564 22.7798C18.5708 22.6977 18.7993 22.5993 19 22.5436C19.3249 22.4535 19.5116 22.3122 19.6901 22.3274V22.3274ZM29.3554 24.3869C29.2416 24.6681 29.1583 24.9176 29.1475 25.224C29.1346 25.5862 29.1753 25.7941 29.3547 26.1035C29.5497 26.4398 29.7424 26.7679 30.0811 26.975C30.5024 27.2326 30.895 27.3765 31.3921 27.3246C31.8054 27.2815 31.9442 27.1653 32.0644 27.6062C32.1588 27.987 32.3866 28.2678 32.6833 28.5179C33.7761 29.4392 34.4754 28.5692 34.0374 28.0658C33.8927 27.8993 33.5617 27.8395 33.3249 27.6419C32.8306 27.2292 32.9153 26.4261 33.3957 26.04C33.8201 25.779 33.9686 25.8297 34.4284 25.9365C34.7186 26.0039 35.3406 26.054 35.43 25.6665C35.4975 25.3731 35.3789 25.1139 35.1202 24.9699C34.7238 24.7494 34.4495 24.7446 34.0113 24.7343C33.5217 24.7225 33.2251 24.7516 32.8299 25.064C32.3923 25.41 32.2866 25.5607 31.9826 26.0073C31.8926 26.1393 31.5093 26.2057 31.3607 26.1976C30.823 26.1686 30.3604 25.9172 30.293 25.3423C30.2478 24.9579 30.2832 24.7326 30.5528 24.4686C30.7392 24.2859 30.9018 24.0018 30.7634 23.7463C30.5285 23.3786 30.2781 23.4421 29.9369 23.2066C29.7632 23.0774 29.6493 22.9394 29.5772 22.7327C29.4006 22.2257 29.6263 21.7374 30.1021 21.4987C30.7396 21.1786 31.0197 21.5822 31.5125 21.5571C31.8615 21.5394 31.9817 21.1798 31.8982 20.8958C31.7538 20.4037 31.171 20.2998 30.7329 20.2788C30.1251 20.2497 29.7381 20.2951 29.2666 20.7066C28.7048 21.197 28.469 21.6689 28.4957 22.419C28.5129 22.9043 28.5389 23.0908 28.8608 23.4604C28.971 23.5843 29.4017 23.9854 29.4394 24.0501C29.4605 24.1517 29.3942 24.2933 29.3554 24.3869V24.3869ZM25.7296 26.2117C25.4475 26.6813 25.3619 26.8255 24.8308 27.1036C24.5608 27.2431 24.3385 27.3586 24.0324 27.3621C23.7864 27.3649 23.6684 27.3003 23.4694 27.2896C23.1392 27.272 23.1212 27.451 23.0593 27.7104C22.9549 28.148 22.2606 28.7641 21.8338 28.8949C21.6154 28.9619 21.1494 28.9034 21.049 28.6689C20.9363 28.4052 20.9837 28.0603 21.2769 27.9398C21.8882 27.6886 22.1708 27.4888 22.1452 26.7876C22.1319 26.5388 21.9735 26.18 21.758 26.0426L21.6997 26.0063C21.369 25.7994 21.1182 25.8323 20.7532 25.928C20.4491 26.0077 19.8827 26.061 19.7233 25.7073C19.6953 25.6385 19.7202 25.364 19.7359 25.2868C19.788 25.0306 20.3252 24.801 20.5426 24.7778C20.9443 24.7348 21.2941 24.713 21.6977 24.7626C22.0915 24.8112 22.6221 25.285 22.8755 25.5825C22.9664 25.6894 23.1433 26.0387 23.258 26.0832C23.4669 26.1628 23.6356 26.2236 23.8631 26.1942C24.3585 26.1235 24.7589 25.946 24.8486 25.4027C25.0018 24.4732 24.3788 24.497 24.3307 24.0043C24.2872 23.5586 24.8175 23.428 25.1091 23.2715C25.894 22.8501 25.7617 21.7208 24.9125 21.4349C24.4355 21.2744 24.2443 21.4676 23.835 21.5521C23.6474 21.5908 23.3561 21.5432 23.2885 21.3444C23.1289 20.8767 23.3511 20.541 23.7941 20.377C24.1358 20.2504 24.8486 20.2595 25.2045 20.3314C25.7364 20.4388 26.2782 21.0415 26.5137 21.509C26.7151 21.9086 26.6874 22.7138 26.5365 23.1326C26.4621 23.3392 26.0196 23.7414 25.8459 23.9047C25.7528 23.9923 25.6669 24.0272 25.7048 24.1423C25.8097 24.4596 25.942 24.6582 25.984 25.005C26.0407 25.474 25.9726 25.8085 25.7296 26.2117V26.2117ZM37.744 31.0184C37.6313 31.1516 37.5184 31.2846 37.4051 31.4173C36.2835 32.7324 35.0588 34.0603 33.9925 35.4056C33.3189 36.2554 32.7812 37.2292 32.4501 38.2635C32.2922 38.7567 32.2151 38.954 32.2025 39.4814C32.1712 40.7962 32.1803 42.148 32.1687 43.4673C32.1641 43.9808 32.1908 44.7122 32.1486 45.1989C32.1002 45.7581 31.5023 46.4722 30.9623 46.6114C30.6448 46.6932 28.2166 46.6422 27.6991 46.6405C26.6788 46.6375 25.5759 46.6727 24.5687 46.6298C24.0109 46.6028 23.3886 46.0768 23.2145 45.5474C23.0932 45.1782 23.1316 43.2243 23.1278 42.6959C23.1188 41.4362 23.1871 39.8622 22.9284 38.6519C22.707 37.6163 21.8727 36.1668 21.1909 35.3562C19.656 33.5313 18.1099 31.7695 16.6338 29.8892C16.0139 29.0981 15.4404 27.9287 15.0689 26.9898C14.7211 26.1114 14.4064 24.6234 14.3656 23.6882C14.3372 22.5858 14.3354 21.4453 14.5235 20.358C14.8286 18.5947 15.9764 15.9767 17.0618 14.5631C17.8373 13.5711 18.8895 12.6101 19.8781 11.8311C21.2246 10.77 21.9481 10.477 23.5558 9.94381C25.7538 9.23215 28.2261 9.36555 30.4724 9.74998C31.1661 9.86871 32.6572 10.3522 33.2618 10.6692C33.8576 10.9816 34.6238 11.3653 35.1742 11.7286C37.6387 13.3556 38.7237 15.1573 39.8612 17.8205C40.3224 18.9061 40.6262 20.588 40.7436 21.7694C40.9138 23.481 40.6846 24.5348 40.2939 26.1818C39.9309 27.7125 38.7432 29.8152 37.744 31.0184V31.0184Z" fill="#015138"/>
</svg>
