<svg width="26" height="15" viewBox="0 0 26 15" fill="none" xmlns="http://www.w3.org/2000/svg">
<path fill-rule="evenodd" clip-rule="evenodd" d="M25.1847 1.38039C25.3755 0.828773 25.1847 0.427773 24.3405 0.427773H21.5335C20.8255 0.427773 20.4985 0.778892 20.3077 1.15446C20.3077 1.15446 18.8637 4.36246 16.8473 6.44228C16.1934 7.04378 15.8937 7.24428 15.5394 7.24428C15.3486 7.24428 15.1031 7.04378 15.1031 6.49265V1.35447C15.1031 0.703094 14.8855 0.402344 14.2857 0.402344H9.87127C9.43496 0.402344 9.16268 0.703094 9.16268 1.00384C9.16268 1.63028 10.1709 1.7809 10.2797 3.53503V7.34649C10.2797 8.17343 10.1189 8.32454 9.76192 8.32454C8.80838 8.32454 6.49233 5.0916 5.10303 1.40778C4.83288 0.678153 4.55845 0.402344 3.84986 0.402344H1.01604C0.198644 0.402344 0.0625 0.752974 0.0625 1.12903C0.0625 1.80584 1.01604 5.21385 4.50378 9.72461C6.81983 12.8055 10.1168 14.4613 13.0867 14.4613C14.8855 14.4613 15.1031 14.0852 15.1031 13.4588V11.1281C15.1031 10.3765 15.2666 10.2513 15.8391 10.2513C16.2475 10.2513 16.9834 10.4513 18.6456 11.9301C20.5526 13.6842 20.8796 14.4862 21.9425 14.4862H24.749C25.5664 14.4862 25.948 14.1102 25.7298 13.3835C25.4849 12.6568 24.5582 11.6044 23.3591 10.3515C22.7052 9.65028 21.7243 8.87322 21.4247 8.49716C21.0163 7.99591 21.1251 7.79541 21.4247 7.34453C21.3974 7.34453 24.831 2.88365 25.1847 1.37844" fill="white"/>
</svg>
