<svg width="559" height="245" viewBox="0 0 559 245" fill="none" xmlns="http://www.w3.org/2000/svg">
<rect width="559" height="245" rx="14" fill="white"/>
<path d="M351.688 57.604L344.396 50.3125L207.312 187.396L214.604 194.688L224.916 184.375H331.062C333.796 184.371 336.417 183.284 338.35 181.35C340.284 179.417 341.371 176.796 341.375 174.062V67.9165L351.688 57.604ZM331.062 174.062H235.229L275.411 133.88L287.677 146.145C289.611 148.079 292.234 149.165 294.969 149.165C297.704 149.165 300.327 148.079 302.261 146.145L310.438 137.969L331.062 158.58V174.062ZM331.062 143.992L317.729 130.659C315.796 128.725 313.173 127.638 310.438 127.638C307.702 127.638 305.079 128.725 303.146 130.659L294.969 138.836L282.712 126.579L331.062 78.229V143.992Z" fill="black"/>
<path d="M227.938 153.438V137.969L253.719 112.205L260.8 119.286L268.101 111.985L261.011 104.895C259.077 102.961 256.454 101.875 253.719 101.875C250.984 101.875 248.361 102.961 246.427 104.895L227.938 123.385V70.9375H310.438V60.625H227.938C225.203 60.6277 222.582 61.7151 220.648 63.6485C218.715 65.5819 217.628 68.2033 217.625 70.9375V153.438H227.938Z" fill="black"/>
</svg>
