<?xml version="1.0" encoding="iso-8859-1"?>
<!-- Generator: Adobe Illustrator 19.0.0, SVG Export Plug-In . SVG Version: 6.00 Build 0)  -->
<svg version="1.1" id="Layer_1" xmlns="http://www.w3.org/2000/svg" xmlns:xlink="http://www.w3.org/1999/xlink" x="0px" y="0px"
	 viewBox="0 0 496 496" style="enable-background:new 0 0 496 496;" xml:space="preserve">
<g>
	<g>
		<g>
			<path d="M208,112c-52.936,0-96,43.064-96,96c0,52.936,43.064,96,96,96c52.936,0,96-43.064,96-96C304,155.064,260.936,112,208,112
				z M208,288c-39.92,0-73.008-29.424-78.952-67.704C140.712,230.56,166.584,248,208,248s67.288-17.44,78.952-27.704
				C281.008,258.576,247.92,288,208,288z M172.872,226.728c-16.656-5.312-27.76-13.448-33.64-18.704
				c5.88-5.224,17.008-13.368,33.608-18.704c-2.984,5.608-4.84,11.896-4.84,18.68C168,214.8,169.864,221.112,172.872,226.728z
				 M184,208c0-13.232,10.768-24,24-24s24,10.768,24,24s-10.768,24-24,24S184,221.232,184,208z M243.128,189.272
				c16.664,5.312,27.768,13.456,33.64,18.704c-5.88,5.224-17.008,13.368-33.608,18.704c2.984-5.6,4.84-11.896,4.84-18.68
				C248,201.2,246.136,194.888,243.128,189.272z M208,168c-41.416,0-67.288,17.44-78.952,27.704C134.992,157.424,168.08,128,208,128
				s73.008,29.424,78.952,67.704C275.288,185.44,249.416,168,208,168z"/>
			<path d="M482.056,414.744L391.312,324l14.344-14.344l-11.312-11.312L380,312.688l-18.768-18.768
				c8.232-14.608,14.392-29.976,18.112-45.92H416v-80h-36.656c-4.36-18.848-11.688-36.608-21.848-52.92l25.864-25.872l-56.56-56.56
				l-25.872,25.864c-16.32-10.168-34.08-17.496-52.928-21.856V0h-80v36.656c-18.848,4.36-36.608,11.688-52.92,21.848L89.2,32.64
				L32.64,89.2l25.864,25.872c-10.16,16.32-17.488,34.08-21.848,52.928H0v80h36.656c4.36,18.848,11.688,36.608,21.848,52.92
				L32.64,326.8l56.56,56.56l25.872-25.864c16.312,10.168,34.072,17.496,52.92,21.848V416h80v-36.656
				c15.944-3.728,31.304-9.88,45.92-18.112L312.68,380l-14.344,14.344l11.312,11.312l14.344-14.344l90.744,90.744
				c9,8.992,20.952,13.944,33.664,13.944c26.248,0,47.6-21.352,47.6-47.6C496,435.688,491.048,423.736,482.056,414.744z
				 M238.488,365.008L232,366.256V400h-48v-33.736l-6.488-1.248c-21.336-4.12-41.192-12.32-59.032-24.384l-5.472-3.704
				l-23.816,23.808L55.264,326.8l23.808-23.816l-3.704-5.472c-12.064-17.832-20.264-37.696-24.384-59.032L49.736,232H16v-48h33.736
				l1.248-6.488c4.12-21.336,12.32-41.192,24.384-59.032l3.704-5.472L55.264,89.2L89.2,55.264l23.816,23.808l5.472-3.704
				c17.832-12.064,37.696-20.264,59.032-24.384l6.48-1.248V16h48v33.736l6.488,1.248c21.336,4.12,41.192,12.32,59.032,24.384
				l5.472,3.704l23.816-23.808L360.744,89.2l-23.808,23.816l3.704,5.472c12.064,17.832,20.264,37.696,24.384,59.032l1.24,6.48H400
				v48h-33.744l-1.248,6.488c-2.904,15.12-8.216,29.736-15.56,43.648l-11.824-11.824C346.736,251.424,352,230.336,352,208
				c0-79.4-64.6-144-144-144S64,128.6,64,208s64.6,144,144,144c22.336,0,43.424-5.264,62.304-14.376l11.824,11.824
				C268.216,356.792,253.608,362.104,238.488,365.008z M336,208c0,70.576-57.424,128-128,128S80,278.576,80,208S137.424,80,208,80
				S336,137.424,336,208z M284.864,329.552c18-11.424,33.264-26.688,44.688-44.688L368.688,324L324,368.688L284.864,329.552z
				 M448.4,480c-8.44,0-16.376-3.288-22.344-9.256L335.312,380L380,335.312l90.744,90.744C476.712,432.024,480,439.96,480,448.4
				C480,465.824,465.824,480,448.4,480z"/>
		</g>
	</g>
</g>
<g>
</g>
<g>
</g>
<g>
</g>
<g>
</g>
<g>
</g>
<g>
</g>
<g>
</g>
<g>
</g>
<g>
</g>
<g>
</g>
<g>
</g>
<g>
</g>
<g>
</g>
<g>
</g>
<g>
</g>
</svg>
